<svg width="25" height="24" viewBox="0 0 25 24" fill="none" xmlns="http://www.w3.org/2000/svg">
<path d="M19.13 7.15C19.17 7.76 19.12 8.45 19 9.22L18.27 13.91C17.65 17.82 15.84 19.14 11.93 18.53L7.24 17.79C5.89 17.58 4.85 17.22 4.09 16.68C2.64 15.67 2.22 14.01 2.62 11.45L3.36 6.76C3.98 2.85 5.79 1.53 9.7 2.14L14.39 2.88C17.53 3.37 19 4.65 19.13 7.15Z" stroke="#979797" stroke-width="1.5" stroke-linecap="round" stroke-linejoin="round"/>
<path d="M21 13.47L19.5 17.98C18.25 21.74 16.25 22.74 12.49 21.49L7.98 19.99C5.71 19.24 4.45 18.2 4.09 16.68C4.85 17.22 5.89 17.58 7.24 17.79L11.93 18.53C15.84 19.14 17.65 17.82 18.27 13.91L19 9.22C19.12 8.45 19.17 7.76 19.13 7.15C21.52 8.42 22.04 10.34 21 13.47Z" stroke="#979797" stroke-width="1.5" stroke-linecap="round" stroke-linejoin="round"/>
<path d="M8.74 8.98C9.70098 8.98 10.48 8.20098 10.48 7.24C10.48 6.27902 9.70098 5.5 8.74 5.5C7.77902 5.5 7 6.27902 7 7.24C7 8.20098 7.77902 8.98 8.74 8.98Z" stroke="#979797" stroke-width="1.5" stroke-linecap="round" stroke-linejoin="round"/>
</svg>
