<svg width="24" height="24" viewBox="0 0 24 24" fill="none" xmlns="http://www.w3.org/2000/svg">
<path fill-rule="evenodd" clip-rule="evenodd" d="M8.3245 4.663L8.352 4.543C8.4045 4.32 8.4905 3.992 8.668 3.669C8.849 3.34 9.1295 3.0065 9.5695 2.787C10.008 2.5685 10.5575 2.487 11.237 2.577C11.987 2.677 13.4935 2.925 14.8245 3.602C16.163 4.283 17.417 5.4545 17.417 7.4055C17.417 8.4135 17.027 9.495 16.649 10.2C16.4675 10.539 16.252 10.863 16.036 11.0375C15.9865 11.0775 15.916 11.1275 15.8285 11.1625C15.5885 11.9513 15.1107 12.6467 14.4605 13.1536C13.8103 13.6606 13.0193 13.9543 12.1958 13.9947C11.3723 14.0351 10.5565 13.8201 9.85976 13.3792C9.16306 12.9383 8.61954 12.293 8.3035 11.5315L8.2915 11.5335L8.114 11.318L8.1135 11.317L8.1125 11.316L8.11 11.3125L8.1015 11.3025C8.05871 11.2492 8.01753 11.1947 7.978 11.139C7.87003 10.9893 7.76828 10.8351 7.673 10.677C7.438 10.288 7.1545 9.734 6.973 9.0875C6.792 8.441 6.709 7.683 6.899 6.901C7.084 6.14 7.5205 5.391 8.311 4.722L8.3245 4.663ZM9.1645 10.982C9.38135 11.6056 9.79778 12.1403 10.3493 12.5033C10.9008 12.8663 11.5566 13.0374 12.2151 12.9899C12.8737 12.9425 13.4982 12.6792 13.992 12.2409C14.4858 11.8026 14.8213 11.2138 14.9465 10.5655L15.003 10.5845C15.001 10.5562 15 10.5279 15 10.4995C15 9.672 14.885 9.0945 14.778 8.7345C14.7571 8.66443 14.7339 8.59506 14.7085 8.5265L14.688 8.5275H14.668C14.2941 8.53557 13.9203 8.5071 13.552 8.4425C12.6935 8.2975 11.531 7.9355 10.162 7.097C10.132 7.164 10.102 7.2395 10.072 7.3235C9.974 7.601 9.8935 7.9305 9.824 8.2785C9.7625 8.585 9.712 8.8935 9.664 9.1825L9.6455 9.2965C9.594 9.6065 9.5425 9.911 9.4825 10.1315C9.3775 10.5145 9.2705 10.7865 9.1645 10.9815V10.982ZM8.4645 10.0505C8.23866 9.66285 8.06133 9.24892 7.9365 8.818C7.787 8.285 7.732 7.708 7.871 7.1375C8.006 6.5825 8.3325 5.999 9.004 5.446C9.125 5.364 9.18 5.254 9.195 5.2245V5.224C9.22125 5.16994 9.24235 5.11352 9.258 5.0555C9.274 4.9985 9.2915 4.9205 9.308 4.8505L9.3255 4.772C9.373 4.5705 9.4345 4.351 9.5445 4.1505C9.6515 3.9565 9.798 3.7905 10.016 3.682C10.235 3.5725 10.574 3.4975 11.105 3.5685C11.8315 3.665 13.198 3.8965 14.371 4.4935C15.536 5.086 16.417 5.983 16.417 7.4055C16.417 8.0605 16.197 8.8055 15.932 9.393C15.882 9.01 15.81 8.697 15.736 8.449C15.6844 8.27175 15.6201 8.09847 15.5435 7.9305C15.5146 7.86825 15.4829 7.80736 15.4485 7.748L15.44 7.7345L15.437 7.7295L15.4355 7.727L15.4345 7.7255L15.2495 7.4385L14.9185 7.505L14.9115 7.5065L14.863 7.513C14.7886 7.52129 14.7139 7.5263 14.639 7.528C14.3307 7.53396 14.0226 7.50984 13.719 7.456C12.9125 7.32 11.7275 6.9495 10.288 5.991L9.938 5.7575L9.6485 6.0625C9.41 6.3135 9.248 6.656 9.1295 6.9895C9.0085 7.332 8.917 7.7145 8.8435 8.0815C8.78256 8.39382 8.72722 8.7072 8.6775 9.0215L8.6585 9.1335C8.605 9.459 8.5615 9.7075 8.5175 9.8685C8.50108 9.92952 8.48341 9.9902 8.4645 10.0505Z" fill="#979797"/>
<path fill-rule="evenodd" clip-rule="evenodd" d="M8.957 14.4275C8.851 14.2165 8.7205 13.956 8.5 14.0065C5.798 14.6215 3 16.397 3 18.285V21H21V18.285C21 16.798 19.264 15.3805 17.2065 14.545L17.204 14.54C17.2017 14.5355 17.1994 14.531 17.197 14.5265L17.1805 14.5345C16.634 14.3145 16.065 14.1345 15.5 14.0065C15.2485 13.949 14.9885 14.295 14.875 14.5115H9C8.986 14.4855 8.972 14.4565 8.957 14.4275ZM15.7015 15.0875C15.92 15.148 16.1375 15.216 16.352 15.291C16.358 15.462 16.345 15.664 16.317 15.87C16.2885 16.0833 16.243 16.294 16.181 16.5H15.5C15.4072 16.5 15.3162 16.5259 15.2372 16.5748C15.1583 16.6236 15.0945 16.6935 15.053 16.7765L14.553 17.7765C14.5182 17.8459 14.5001 17.9224 14.5 18V19C14.5 19.1326 14.5527 19.2598 14.6464 19.3536C14.7402 19.4473 14.8674 19.5 15 19.5H16V18.5H15.5V18.118L15.809 17.5H17.191L17.5 18.118V18.5H17V19.5H18C18.1326 19.5 18.2598 19.4473 18.3536 19.3536C18.4473 19.2598 18.5 19.1326 18.5 19V18C18.4999 17.9224 18.4818 17.8459 18.447 17.7765L17.947 16.7765C17.9055 16.6935 17.8417 16.6236 17.7628 16.5748C17.6838 16.5259 17.5928 16.5 17.5 16.5H17.217C17.2788 16.2354 17.3202 15.9664 17.341 15.6955C17.8285 15.926 18.2815 16.1905 18.674 16.4765C19.635 17.1775 20 17.8335 20 18.285V20H4V18.285C4 17.8335 4.365 17.1775 5.326 16.4765C5.809 16.124 6.3855 15.805 7.0035 15.541C7.02067 15.9394 7.0846 16.3345 7.194 16.718L7.198 16.732C6.89908 16.9211 6.67661 17.2098 6.56987 17.547C6.46313 17.8842 6.47899 18.2483 6.61466 18.575C6.75033 18.9016 6.99707 19.1698 7.3113 19.3322C7.62554 19.4946 7.98705 19.5407 8.33198 19.4624C8.67692 19.3841 8.98309 19.1864 9.19642 18.9043C9.40975 18.6222 9.51651 18.2737 9.49785 17.9205C9.47919 17.5673 9.33631 17.232 9.09443 16.9739C8.85256 16.7158 8.52727 16.5515 8.176 16.51C8.11211 16.3008 8.06529 16.0868 8.036 15.87C8.00816 15.6761 7.99662 15.4803 8.0015 15.2845C8.00295 15.2471 8.00545 15.2098 8.009 15.1725C8.069 15.154 8.129 15.136 8.189 15.119L8.3965 15.512H15.4785L15.7015 15.088V15.0875ZM8 18.508C8.269 18.508 8.5 18.288 8.5 18.0005C8.5 17.7135 8.269 17.493 8 17.493C7.731 17.493 7.5 17.713 7.5 18.0005C7.5 18.2875 7.731 18.508 8 18.508Z" fill="#979797"/>
</svg>
