<svg width="33" height="33" viewBox="0 0 33 33" fill="none" xmlns="http://www.w3.org/2000/svg">
<rect width="33" height="33" rx="16.5" fill="#F3F6F9"/>
<g clip-path="url(#clip0_1581_2349)">
<path d="M25.412 31.4647L24.8358 26.8554C24.7488 26.1596 24.2701 25.5756 23.605 25.3539L21.3834 24.6134C21.0783 24.5116 20.7436 24.5764 20.5083 24.7769L19.8539 24.5587C19.4822 24.4348 19.2315 24.087 19.2315 23.6951V22.2271L21.1922 21.4101C22.2099 20.9862 22.8728 19.9918 22.8728 18.8892V18.4341C23.627 18.4341 24.2383 17.8227 24.2383 17.0686C24.2383 16.7284 24.1136 16.4175 23.9079 16.1784C24.2942 14.772 25.3802 10.3234 24.2383 8.4203L24.6935 6.59961C24.6935 6.59961 19.9142 6.7134 17.4107 7.50995L18.3211 6.59961C18.3211 6.59961 11.9202 6.59961 10.5836 8.87507L10.5832 8.87547C10.5832 8.87547 8.30731 8.85652 8.30731 11.6065C8.30731 12.613 8.8687 15.1262 9.10972 16.1591C8.89391 16.4005 8.76248 16.7192 8.76248 17.0686C8.76248 17.8227 9.37383 18.4341 10.128 18.4341V18.8892C10.128 19.9917 10.7909 20.9861 11.8086 21.4102L13.7694 22.2272V23.6952C13.7694 24.087 13.5186 24.4349 13.1469 24.5588L12.4925 24.7769C12.2572 24.5765 11.9226 24.5117 11.6175 24.6134L9.39585 25.354C8.73067 25.5757 8.25195 26.1597 8.16501 26.8554L7.58888 31.4647C7.48697 32.2797 8.12245 32.9996 8.94381 32.9996H8.95661H24.0442H24.057C24.8783 32.9996 25.5139 32.2797 25.412 31.4647Z" fill="#FFD7A3"/>
<path d="M19.2312 22.2275L13.7691 22.2276V23.6956C13.7691 24.0232 13.5879 24.3118 13.313 24.4727C17.1304 25.1409 19.2312 22.2275 19.2312 22.2275Z" fill="#FDC88E"/>
<path d="M9.21747 16.6134C9.21747 16.6134 8.30713 12.8881 8.30713 11.6065C8.30713 8.85652 10.583 8.87547 10.583 8.87547L10.5834 8.87507C11.9201 6.59961 18.3209 6.59961 18.3209 6.59961L17.4106 7.50995C19.914 6.7134 24.6933 6.59961 24.6933 6.59961L24.2381 8.4203C25.6036 10.6962 23.783 16.6134 23.783 16.6134H9.21747Z" fill="#734A3E"/>
<path d="M18.3209 6.59961C18.3209 6.59961 11.9201 6.59961 10.5834 8.87507L10.583 8.87547C10.583 8.87547 8.30713 8.85652 8.30713 11.6065C8.30713 12.8881 9.21747 16.6134 9.21747 16.6134C9.21747 16.6134 18.6813 12.3841 24.6933 6.59961C24.6933 6.59961 19.914 6.7134 17.4106 7.50995L18.3209 6.59961Z" fill="#623F33"/>
<path d="M22.8725 15.7028V14.7925C22.8725 13.5356 21.8536 12.5166 20.5967 12.5166H12.4036C11.1467 12.5166 10.1277 13.5356 10.1277 14.7925V15.7028C9.37356 15.7028 8.76221 16.3142 8.76221 17.0683C8.76221 17.8225 9.37356 18.4338 10.1277 18.4338V18.889C10.1277 19.9915 10.7906 20.9859 11.8083 21.41L14.7494 22.6354C15.3041 22.8666 15.8991 22.9855 16.5001 22.9855C17.101 22.9855 17.696 22.8665 18.2507 22.6354L21.1919 21.4099C22.2096 20.9859 22.8725 19.9915 22.8725 18.889V18.4338C23.6267 18.4338 24.238 17.8225 24.238 17.0683C24.238 16.3142 23.6267 15.7028 22.8725 15.7028Z" fill="#FFE1B2"/>
<path d="M13.3145 17.5237C13.0642 17.5237 12.8594 17.3189 12.8594 17.0685V16.6134C12.8594 16.363 13.0642 16.1582 13.3145 16.1582C13.5649 16.1582 13.7697 16.363 13.7697 16.6134V17.0685C13.7697 17.3189 13.5649 17.5237 13.3145 17.5237Z" fill="#623F33"/>
<path d="M19.6866 17.5237C19.4363 17.5237 19.2314 17.3189 19.2314 17.0685V16.6134C19.2314 16.363 19.4363 16.1582 19.6866 16.1582C19.937 16.1582 20.1418 16.363 20.1418 16.6134V17.0685C20.1418 17.3189 19.937 17.5237 19.6866 17.5237Z" fill="#623F33"/>
<path d="M16.5 20.7218C15.6908 20.7218 14.9339 20.5227 14.4233 20.1753C14.2155 20.034 14.1615 19.7508 14.3031 19.543C14.4442 19.3355 14.7276 19.2814 14.9354 19.4228C15.2932 19.6662 15.8782 19.8115 16.5 19.8115C17.1219 19.8115 17.7069 19.6662 18.0647 19.4228C18.2729 19.281 18.5557 19.3352 18.697 19.543C18.8385 19.7508 18.7846 20.034 18.5768 20.1753C18.0663 20.5227 17.3093 20.7218 16.5 20.7218Z" fill="#E4B07B"/>
<path d="M8.54445 25.9541C8.34236 26.21 8.20706 26.5191 8.16501 26.8555L7.58888 31.4648C7.48697 32.2798 8.12251 32.9997 8.94386 32.9997H11.4935V30.0373C11.4935 29.5993 11.3357 29.1761 11.049 28.8451L8.54445 25.9541Z" fill="#00AB9A"/>
<path d="M24.4564 25.9541C24.6585 26.21 24.7938 26.5191 24.8358 26.8555L25.412 31.4648C25.5139 32.2798 24.8783 32.9997 24.057 32.9997H21.5073V30.0373C21.5073 29.5993 21.6652 29.1761 21.9519 28.8451L24.4564 25.9541Z" fill="#00AB9A"/>
<path d="M12.5171 20.4663C12.1483 20.0709 11.9485 19.5491 11.9485 19.0084V13.8501C13.3972 13.7415 17.9649 13.3465 20.5967 12.5166H12.4036C12.2469 12.5166 12.0951 12.5349 11.9484 12.5667V12.5625C10.9096 12.7734 10.1277 13.6915 10.1277 14.7925V15.7028C9.37356 15.7028 8.76221 16.3142 8.76221 17.0683C8.76221 17.8225 9.37356 18.4338 10.1277 18.4338V18.889C10.1277 19.9915 10.7906 20.9859 11.8083 21.41L14.7493 22.6354C14.8933 22.6954 15.0402 22.747 15.1889 22.7918C13.8892 21.841 13.024 21.0098 12.5171 20.4663Z" fill="#FFD7A3"/>
</g>
<defs>
<clipPath id="clip0_1581_2349">
<rect x="3.30078" y="6.59961" width="26.4" height="26.4" rx="13.2" fill="white"/>
</clipPath>
</defs>
</svg>
