<svg width="748" height="229" viewBox="0 0 748 229" fill="none" xmlns="http://www.w3.org/2000/svg">
<line x1="3.83252e-08" y1="189.5" x2="748" y2="189.5" stroke="#F4F4F5"/>
<line x1="3.83252e-08" y1="149.5" x2="748" y2="149.5" stroke="#F4F4F5"/>
<line x1="3.83252e-08" y1="109.5" x2="748" y2="109.5" stroke="#F4F4F5"/>
<line x1="3.83252e-08" y1="69.5" x2="748" y2="69.5001" stroke="#F4F4F5"/>
<line x1="3.83252e-08" y1="29.5" x2="748" y2="29.5001" stroke="#F4F4F5"/>
<mask id="mask0_2_50" style="mask-type:alpha" maskUnits="userSpaceOnUse" x="0" y="0" width="748" height="189">
<rect width="748" height="189" fill="white"/>
</mask>
<g mask="url(#mask0_2_50)">
<path d="M-1.70213 142C-12.8511 146.8 -21.2128 148.667 -24 149V190H762V40C750.541 50.6667 723.165 70.8 705.326 66C683.028 60 657.943 61 641.22 66C624.496 71 614.277 78 595.695 79C577.113 80 582.688 75 553.887 72C525.085 69 513.007 98 499.071 106C485.135 114 449.83 112 436.823 106C423.816 100 412.667 98 402.447 98C392.227 98 392.227 105 377.362 106C362.496 107 347.631 97 327.191 98C306.752 99 278.879 118 257.511 119C236.142 120 249.149 114 218.489 112C187.83 110 163.674 136 144.163 142C124.652 148 95.8511 135 80.0567 131C64.2624 127 49.3972 142 37.3191 142C25.2411 142 12.234 136 -1.70213 142Z" fill="#EEF2FF" fill-opacity="0.5" stroke="#4F46E5" stroke-width="2"/>
<path d="M-1.70213 132.04C-12.8511 137.736 -21.2128 139.951 -24 140.347V189H762V11C750.541 23.6578 723.165 47.5493 705.326 41.8533C683.028 34.7333 657.943 35.92 641.22 41.8533C624.496 47.7867 614.277 56.0933 595.695 57.28C577.113 58.4667 582.688 52.5333 553.887 48.9733C525.085 45.4133 513.007 79.8267 499.071 89.3201C485.135 98.8134 449.83 96.44 436.823 89.3201C423.816 82.2001 412.667 79.8267 402.447 79.8267C392.227 79.8267 392.227 88.1334 377.362 89.3201C362.496 90.5067 347.631 78.64 327.191 79.8267C306.752 81.0134 278.879 103.56 257.511 104.747C236.142 105.933 249.149 98.8134 218.489 96.44C187.83 94.0667 163.674 124.92 144.163 132.04C124.652 139.16 95.8511 123.733 80.0567 118.987C64.2624 114.24 49.3972 132.04 37.3191 132.04C25.2411 132.04 12.234 124.92 -1.70213 132.04Z" fill="#EEF2FF" fill-opacity="0.5" stroke="#00BDFF" stroke-width="2"/>
<path d="M-75.4538 168.5H-108V196H756V96C754.983 99.3333 752.847 106.5 752.44 108.5C751.932 111 742.778 117.5 738.201 114.5C733.625 111.5 723.962 111 718.877 112.5C713.792 114 714.809 111 705.147 108.5C695.484 106 692.433 114 687.348 115.5C682.263 117 674.635 114 671.075 111L670.922 110.871C667.383 107.887 662.757 103.986 650.225 103C637.511 102 634.969 117.5 629.883 123C624.798 128.5 613.102 125.5 610.051 124.5C606.999 123.5 604.457 120 594.795 123C585.132 126 575.979 136.5 564.283 137C552.586 137.5 542.416 129.5 534.279 129.5C526.142 129.5 528.685 131 517.497 133.5C506.31 136 486.985 129.5 480.374 127C473.763 124.5 465.118 127 460.542 129.5C455.965 132 439.692 132.5 435.115 131C430.538 129.5 417.316 126 414.265 129.5C411.214 133 397.483 127 393.415 127C389.347 127 391.381 123.5 380.702 121.5C370.022 119.5 362.903 129.5 359.852 131C356.8 132.5 351.207 130 346.121 127C341.036 124 320.186 121 307.981 123.5C295.776 126 294.759 133.5 286.623 134.5C278.486 135.5 274.926 142.5 270.858 142.5C266.79 142.5 264.247 142.5 260.687 140.5C257.128 138.5 248.483 140.5 244.923 142.5C241.363 144.5 235.261 145.5 228.141 146C221.022 146.5 216.953 142 211.36 140.5C205.766 139 198.138 138 183.899 138.5C169.66 139 170.168 148 155.421 151.5C140.673 155 129.994 150.5 119.823 149C109.653 147.5 101.008 154.5 96.4308 157C91.854 159.5 81.6833 157 71.5126 154.5C61.342 152 57.2737 157 55.7481 157C54.2225 157 47.103 163.5 38.9664 157C30.8299 150.5 27.2702 152.5 24.2189 152.5C21.1677 152.5 19.1336 156 14.5568 154.5C9.97999 153 9.97999 148.5 2.35197 149C-5.27604 149.5 -10.8699 160 -13.4126 161.5C-15.9553 163 -21.5491 165 -25.6174 165.5C-29.6857 166 -29.6857 163.5 -41.8905 162.5C-54.0954 161.5 -61.2148 168.5 -75.4538 168.5Z" fill="white" fill-opacity="0.04" stroke="#FE265B" stroke-width="2"/>
</g>
<path d="M4.3487 222.13C3.13536 222.13 2.19936 221.593 1.5407 220.518L2.2817 219.881C2.57636 220.323 2.8797 220.652 3.1917 220.869C3.51236 221.077 3.90236 221.181 4.3617 221.181C4.89036 221.181 5.31936 220.995 5.6487 220.622C5.97803 220.241 6.1427 219.699 6.1427 218.997V212.9H7.1827V218.984C7.1827 220.024 6.90536 220.821 6.3507 221.376C5.8307 221.879 5.16336 222.13 4.3487 222.13ZM11.4432 222.143C10.7586 222.143 10.1692 221.957 9.67524 221.584C9.18124 221.211 8.93424 220.691 8.93424 220.024C8.93424 219.322 9.19424 218.78 9.71424 218.399C10.2342 218.018 10.9319 217.827 11.8072 217.827C12.5006 217.827 13.1852 217.922 13.8612 218.113V217.905C13.8612 217.316 13.6879 216.865 13.3412 216.553C12.9946 216.241 12.5049 216.085 11.8722 216.085C11.2136 216.085 10.5332 216.245 9.83124 216.566L9.53224 215.747C10.3642 215.366 11.1789 215.175 11.9762 215.175C12.9296 215.175 13.6532 215.422 14.1472 215.916C14.6152 216.384 14.8492 217.043 14.8492 217.892V222H13.8612V220.999C13.2632 221.762 12.4572 222.143 11.4432 222.143ZM11.6382 221.337C12.2622 221.337 12.7909 221.168 13.2242 220.83C13.6576 220.492 13.8742 220.059 13.8742 219.53V218.906C13.2156 218.715 12.5612 218.62 11.9112 218.62C11.2959 218.62 10.8149 218.746 10.4682 218.997C10.1216 219.24 9.94824 219.573 9.94824 219.998C9.94824 220.405 10.1086 220.73 10.4292 220.973C10.7586 221.216 11.1616 221.337 11.6382 221.337ZM16.9696 222V215.279H17.9706V216.449C18.4992 215.574 19.2662 215.136 20.2716 215.136C21.0689 215.136 21.6972 215.383 22.1566 215.877C22.6159 216.362 22.8456 217.012 22.8456 217.827V222H21.8446V218.074C21.8446 217.441 21.6799 216.947 21.3506 216.592C21.0299 216.228 20.5749 216.046 19.9856 216.046C19.4049 216.046 18.9239 216.241 18.5426 216.631C18.1612 217.021 17.9706 217.528 17.9706 218.152V222H16.9696Z" fill="#52525B"/>
<path d="M66.287 222V212.9H72.826V213.849H67.314V217.099H72.241V218.035H67.314V222H66.287ZM75.0568 219.049C75.1262 219.734 75.3818 220.28 75.8238 220.687C76.2745 221.086 76.8075 221.285 77.4228 221.285C78.2288 221.285 78.9352 220.969 79.5418 220.336L80.1658 220.895C79.4118 221.736 78.4888 222.156 77.3968 222.156C76.4522 222.156 75.6548 221.831 75.0048 221.181C74.3635 220.522 74.0428 219.677 74.0428 218.646C74.0428 217.667 74.3505 216.839 74.9658 216.163C75.5812 215.478 76.3482 215.136 77.2668 215.136C78.2288 215.136 78.9915 215.474 79.5548 216.15C80.1182 216.826 80.3998 217.675 80.3998 218.698C80.3998 218.828 80.3955 218.945 80.3868 219.049H75.0568ZM75.0568 218.243H79.3858C79.3252 217.593 79.1085 217.056 78.7358 216.631C78.3718 216.198 77.8735 215.981 77.2408 215.981C76.6688 215.981 76.1792 216.193 75.7718 216.618C75.3645 217.043 75.1262 217.584 75.0568 218.243ZM85.7272 222.143C84.6698 222.143 83.8118 221.666 83.1532 220.713V222H82.1522V212.51H83.1532V216.631C83.8292 215.634 84.6872 215.136 85.7272 215.136C86.5852 215.136 87.3348 215.457 87.9762 216.098C88.6175 216.731 88.9382 217.58 88.9382 218.646C88.9382 219.695 88.6175 220.54 87.9762 221.181C87.3348 221.822 86.5852 222.143 85.7272 222.143ZM85.5452 221.246C86.2212 221.246 86.7845 221.012 87.2352 220.544C87.6858 220.067 87.9112 219.43 87.9112 218.633C87.9112 217.862 87.6815 217.238 87.2222 216.761C86.7628 216.276 86.2038 216.033 85.5452 216.033C84.8952 216.033 84.3275 216.28 83.8422 216.774C83.3568 217.268 83.1142 217.892 83.1142 218.646C83.1142 219.4 83.3568 220.024 83.8422 220.518C84.3275 221.003 84.8952 221.246 85.5452 221.246Z" fill="#52525B"/>
<path d="M132.745 222V212.9H133.785L137.1 217.866L140.415 212.9H141.455V222H140.428V214.629L137.113 219.504H137.061L133.746 214.642V222H132.745ZM145.865 222.143C145.18 222.143 144.591 221.957 144.097 221.584C143.603 221.211 143.356 220.691 143.356 220.024C143.356 219.322 143.616 218.78 144.136 218.399C144.656 218.018 145.353 217.827 146.229 217.827C146.922 217.827 147.607 217.922 148.283 218.113V217.905C148.283 217.316 148.109 216.865 147.763 216.553C147.416 216.241 146.926 216.085 146.294 216.085C145.635 216.085 144.955 216.245 144.253 216.566L143.954 215.747C144.786 215.366 145.6 215.175 146.398 215.175C147.351 215.175 148.075 215.422 148.569 215.916C149.037 216.384 149.271 217.043 149.271 217.892V222H148.283V220.999C147.685 221.762 146.879 222.143 145.865 222.143ZM146.06 221.337C146.684 221.337 147.212 221.168 147.646 220.83C148.079 220.492 148.296 220.059 148.296 219.53V218.906C147.637 218.715 146.983 218.62 146.333 218.62C145.717 218.62 145.236 218.746 144.89 218.997C144.543 219.24 144.37 219.573 144.37 219.998C144.37 220.405 144.53 220.73 144.851 220.973C145.18 221.216 145.583 221.337 146.06 221.337ZM151.391 222V215.279H152.392V217.034C152.652 216.453 153.02 215.99 153.497 215.643C153.974 215.296 154.52 215.136 155.135 215.162V216.241H155.057C154.286 216.241 153.649 216.51 153.146 217.047C152.643 217.584 152.392 218.343 152.392 219.322V222H151.391Z" fill="#52525B"/>
<path d="M197.921 222L202.068 212.835H203.03L207.177 222H206.072L205.006 219.595H200.053L198.974 222H197.921ZM200.456 218.672H204.603L202.536 214.031L200.456 218.672ZM208.803 224.08V215.279H209.804V216.631C210.48 215.634 211.338 215.136 212.378 215.136C213.236 215.136 213.985 215.457 214.627 216.098C215.268 216.731 215.589 217.58 215.589 218.646C215.589 219.695 215.268 220.54 214.627 221.181C213.985 221.822 213.236 222.143 212.378 222.143C211.32 222.143 210.462 221.666 209.804 220.713V224.08H208.803ZM212.196 221.246C212.872 221.246 213.435 221.012 213.886 220.544C214.336 220.067 214.562 219.43 214.562 218.633C214.562 217.862 214.332 217.238 213.873 216.761C213.413 216.276 212.854 216.033 212.196 216.033C211.546 216.033 210.978 216.28 210.493 216.774C210.007 217.268 209.765 217.892 209.765 218.646C209.765 219.4 210.007 220.024 210.493 220.518C210.978 221.003 211.546 221.246 212.196 221.246ZM217.435 222V215.279H218.436V217.034C218.696 216.453 219.065 215.99 219.541 215.643C220.018 215.296 220.564 215.136 221.179 215.162V216.241H221.101C220.33 216.241 219.693 216.51 219.19 217.047C218.688 217.584 218.436 218.343 218.436 219.322V222H217.435Z" fill="#52525B"/>
<path d="M264.666 222V212.9H265.706L269.021 217.866L272.336 212.9H273.376V222H272.349V214.629L269.034 219.504H268.982L265.667 214.642V222H264.666ZM277.786 222.143C277.101 222.143 276.512 221.957 276.018 221.584C275.524 221.211 275.277 220.691 275.277 220.024C275.277 219.322 275.537 218.78 276.057 218.399C276.577 218.018 277.274 217.827 278.15 217.827C278.843 217.827 279.528 217.922 280.204 218.113V217.905C280.204 217.316 280.03 216.865 279.684 216.553C279.337 216.241 278.847 216.085 278.215 216.085C277.556 216.085 276.876 216.245 276.174 216.566L275.875 215.747C276.707 215.366 277.521 215.175 278.319 215.175C279.272 215.175 279.996 215.422 280.49 215.916C280.958 216.384 281.192 217.043 281.192 217.892V222H280.204V220.999C279.606 221.762 278.8 222.143 277.786 222.143ZM277.981 221.337C278.605 221.337 279.133 221.168 279.567 220.83C280 220.492 280.217 220.059 280.217 219.53V218.906C279.558 218.715 278.904 218.62 278.254 218.62C277.638 218.62 277.157 218.746 276.811 218.997C276.464 219.24 276.291 219.573 276.291 219.998C276.291 220.405 276.451 220.73 276.772 220.973C277.101 221.216 277.504 221.337 277.981 221.337ZM284.098 224.119C283.613 224.119 283.136 224.006 282.668 223.781L283.006 222.988C283.327 223.153 283.678 223.235 284.059 223.235C284.362 223.235 284.618 223.14 284.826 222.949C285.034 222.767 285.238 222.442 285.437 221.974L282.382 215.279H283.487L285.931 220.882L288.089 215.279H289.155L286.334 222.221C286.048 222.906 285.732 223.391 285.385 223.677C285.038 223.972 284.609 224.119 284.098 224.119Z" fill="#52525B"/>
<path d="M332.102 224H332.635C333.484 224 334.16 223.749 334.663 223.246C335.165 222.743 335.417 222.067 335.417 221.218V214.315H334.13V221.244C334.13 221.712 333.995 222.085 333.727 222.362C333.458 222.631 333.094 222.765 332.635 222.765H332.102V224ZM339.885 224.156C340.319 224.156 340.709 224.069 341.055 223.896C341.402 223.714 341.679 223.463 341.887 223.142V224H343.07V216.993H341.848V221.14C341.848 221.712 341.688 222.163 341.367 222.492C341.055 222.821 340.652 222.986 340.158 222.986C339.656 222.986 339.248 222.83 338.936 222.518C338.624 222.197 338.468 221.773 338.468 221.244V216.993H337.259V221.374C337.259 221.92 337.372 222.405 337.597 222.83C337.823 223.246 338.13 223.571 338.52 223.805C338.919 224.039 339.374 224.156 339.885 224.156ZM344.943 224H346.152V219.853C346.152 219.281 346.313 218.83 346.633 218.501C346.954 218.172 347.361 218.007 347.855 218.007C348.349 218.007 348.752 218.172 349.064 218.501C349.376 218.822 349.532 219.272 349.532 219.853V224H350.754V219.463C350.754 218.96 350.637 218.514 350.403 218.124C350.178 217.725 349.866 217.413 349.467 217.188C349.077 216.954 348.631 216.837 348.128 216.837C347.695 216.837 347.305 216.928 346.958 217.11C346.612 217.283 346.334 217.53 346.126 217.851V216.993H344.943V224Z" fill="#52525B"/>
<path d="M396.405 222.13C395.192 222.13 394.256 221.593 393.597 220.518L394.338 219.881C394.633 220.323 394.936 220.652 395.248 220.869C395.569 221.077 395.959 221.181 396.418 221.181C396.947 221.181 397.376 220.995 397.705 220.622C398.035 220.241 398.199 219.699 398.199 218.997V212.9H399.239V218.984C399.239 220.024 398.962 220.821 398.407 221.376C397.887 221.879 397.22 222.13 396.405 222.13ZM403.968 222.143C403.171 222.143 402.542 221.9 402.083 221.415C401.624 220.921 401.394 220.267 401.394 219.452V215.279H402.395V219.205C402.395 219.838 402.555 220.336 402.876 220.7C403.205 221.055 403.665 221.233 404.254 221.233C404.835 221.233 405.316 221.038 405.697 220.648C406.078 220.258 406.269 219.751 406.269 219.127V215.279H407.257V222H406.269V220.83C405.723 221.705 404.956 222.143 403.968 222.143ZM409.6 222V212.51H410.601V222H409.6Z" fill="#52525B"/>
<path d="M453.613 222L457.76 212.835H458.722L462.869 222H461.764L460.698 219.595H455.745L454.666 222H453.613ZM456.148 218.672H460.295L458.228 214.031L456.148 218.672ZM466.838 222.143C466.041 222.143 465.412 221.9 464.953 221.415C464.494 220.921 464.264 220.267 464.264 219.452V215.279H465.265V219.205C465.265 219.838 465.425 220.336 465.746 220.7C466.075 221.055 466.535 221.233 467.124 221.233C467.705 221.233 468.186 221.038 468.567 220.648C468.948 220.258 469.139 219.751 469.139 219.127V215.279H470.127V222H469.139V220.83C468.593 221.705 467.826 222.143 466.838 222.143ZM475.356 224.106C474.22 224.106 473.202 223.794 472.301 223.17L472.756 222.39C473.544 222.962 474.407 223.248 475.343 223.248C476.097 223.248 476.69 223.04 477.124 222.624C477.566 222.217 477.787 221.627 477.787 220.856V220.063C477.076 221.008 476.196 221.48 475.148 221.48C474.298 221.48 473.557 221.19 472.925 220.609C472.301 220.02 471.989 219.253 471.989 218.308C471.989 217.363 472.305 216.601 472.938 216.02C473.57 215.431 474.307 215.136 475.148 215.136C476.222 215.136 477.098 215.587 477.774 216.488V215.279H478.775V220.83C478.775 221.844 478.489 222.637 477.917 223.209C477.319 223.807 476.465 224.106 475.356 224.106ZM475.343 220.596C476.001 220.596 476.578 220.379 477.072 219.946C477.566 219.513 477.813 218.962 477.813 218.295C477.813 217.628 477.566 217.082 477.072 216.657C476.586 216.232 476.01 216.02 475.343 216.02C474.684 216.02 474.129 216.232 473.679 216.657C473.237 217.073 473.016 217.623 473.016 218.308C473.016 218.967 473.241 219.513 473.692 219.946C474.151 220.379 474.701 220.596 475.343 220.596Z" fill="#52525B"/>
<path d="M525.586 222.13C524.191 222.13 522.952 221.645 521.868 220.674L522.505 219.92C522.991 220.362 523.476 220.687 523.961 220.895C524.455 221.103 525.01 221.207 525.625 221.207C526.232 221.207 526.722 221.064 527.094 220.778C527.467 220.483 527.653 220.102 527.653 219.634C527.653 219.192 527.489 218.841 527.159 218.581C526.83 218.321 526.206 218.096 525.287 217.905C524.204 217.671 523.424 217.355 522.947 216.956C522.471 216.557 522.232 215.99 522.232 215.253C522.232 214.534 522.514 213.94 523.077 213.472C523.641 213.004 524.356 212.77 525.222 212.77C526.427 212.77 527.493 213.143 528.42 213.888L527.822 214.681C527.016 214.022 526.141 213.693 525.196 213.693C524.616 213.693 524.148 213.836 523.792 214.122C523.437 214.399 523.259 214.755 523.259 215.188C523.259 215.639 523.428 215.994 523.766 216.254C524.113 216.514 524.767 216.748 525.729 216.956C526.761 217.181 527.51 217.498 527.978 217.905C528.455 218.304 528.693 218.854 528.693 219.556C528.693 220.327 528.403 220.951 527.822 221.428C527.242 221.896 526.496 222.13 525.586 222.13ZM531.211 219.049C531.28 219.734 531.536 220.28 531.978 220.687C532.428 221.086 532.961 221.285 533.577 221.285C534.383 221.285 535.089 220.969 535.696 220.336L536.32 220.895C535.566 221.736 534.643 222.156 533.551 222.156C532.606 222.156 531.809 221.831 531.159 221.181C530.517 220.522 530.197 219.677 530.197 218.646C530.197 217.667 530.504 216.839 531.12 216.163C531.735 215.478 532.502 215.136 533.421 215.136C534.383 215.136 535.145 215.474 535.709 216.15C536.272 216.826 536.554 217.675 536.554 218.698C536.554 218.828 536.549 218.945 536.541 219.049H531.211ZM531.211 218.243H535.54C535.479 217.593 535.262 217.056 534.89 216.631C534.526 216.198 534.027 215.981 533.395 215.981C532.823 215.981 532.333 216.193 531.926 216.618C531.518 217.043 531.28 217.584 531.211 218.243ZM538.306 224.08V215.279H539.307V216.631C539.983 215.634 540.841 215.136 541.881 215.136C542.739 215.136 543.489 215.457 544.13 216.098C544.771 216.731 545.092 217.58 545.092 218.646C545.092 219.695 544.771 220.54 544.13 221.181C543.489 221.822 542.739 222.143 541.881 222.143C540.824 222.143 539.966 221.666 539.307 220.713V224.08H538.306ZM541.699 221.246C542.375 221.246 542.938 221.012 543.389 220.544C543.84 220.067 544.065 219.43 544.065 218.633C544.065 217.862 543.835 217.238 543.376 216.761C542.917 216.276 542.358 216.033 541.699 216.033C541.049 216.033 540.481 216.28 539.996 216.774C539.511 217.268 539.268 217.892 539.268 218.646C539.268 219.4 539.511 220.024 539.996 220.518C540.481 221.003 541.049 221.246 541.699 221.246Z" fill="#52525B"/>
<path d="M595.989 220.778C595.114 221.697 594 222.156 592.648 222.156C591.296 222.156 590.187 221.697 589.32 220.778C588.454 219.859 588.02 218.75 588.02 217.45C588.02 216.159 588.458 215.054 589.333 214.135C590.209 213.208 591.322 212.744 592.674 212.744C594.026 212.744 595.136 213.203 596.002 214.122C596.869 215.041 597.302 216.15 597.302 217.45C597.302 218.741 596.865 219.851 595.989 220.778ZM590.1 220.115C590.785 220.843 591.643 221.207 592.674 221.207C593.706 221.207 594.555 220.847 595.222 220.128C595.898 219.4 596.236 218.507 596.236 217.45C596.236 216.401 595.894 215.513 595.209 214.785C594.533 214.057 593.68 213.693 592.648 213.693C591.617 213.693 590.763 214.057 590.087 214.785C589.42 215.504 589.086 216.393 589.086 217.45C589.086 218.499 589.424 219.387 590.1 220.115ZM602.328 222.156C601.357 222.156 600.538 221.814 599.871 221.129C599.212 220.436 598.883 219.608 598.883 218.646C598.883 217.684 599.212 216.861 599.871 216.176C600.538 215.483 601.357 215.136 602.328 215.136C603.368 215.136 604.265 215.535 605.019 216.332L604.382 217.008C603.758 216.349 603.069 216.02 602.315 216.02C601.639 216.02 601.067 216.276 600.599 216.787C600.14 217.29 599.91 217.909 599.91 218.646C599.91 219.374 600.144 219.994 600.612 220.505C601.089 221.008 601.678 221.259 602.38 221.259C603.099 221.259 603.775 220.921 604.408 220.245L605.071 220.856C604.291 221.723 603.377 222.156 602.328 222.156ZM608.975 222.117C608.394 222.117 607.931 221.965 607.584 221.662C607.246 221.35 607.077 220.869 607.077 220.219V216.163H606.141V215.279H607.077V213.251H608.078V215.279H610.21V216.163H608.078V220.089C608.078 220.834 608.455 221.207 609.209 221.207C609.538 221.207 609.863 221.129 610.184 220.973V221.831C609.82 222.022 609.417 222.117 608.975 222.117Z" fill="#52525B"/>
<path d="M653.331 222V212.9H654.293L660.026 220.193V212.9H661.027V222H660.208L654.332 214.538V222H653.331ZM669.01 221.129C668.334 221.814 667.498 222.156 666.501 222.156C665.504 222.156 664.672 221.814 664.005 221.129C663.346 220.444 663.017 219.617 663.017 218.646C663.017 217.684 663.351 216.861 664.018 216.176C664.694 215.483 665.53 215.136 666.527 215.136C667.524 215.136 668.356 215.478 669.023 216.163C669.69 216.848 670.024 217.675 670.024 218.646C670.024 219.608 669.686 220.436 669.01 221.129ZM666.527 221.259C667.246 221.259 667.836 221.008 668.295 220.505C668.763 220.002 668.997 219.383 668.997 218.646C668.997 217.918 668.754 217.298 668.269 216.787C667.792 216.276 667.203 216.02 666.501 216.02C665.782 216.02 665.192 216.276 664.733 216.787C664.274 217.29 664.044 217.909 664.044 218.646C664.044 219.374 664.282 219.994 664.759 220.505C665.236 221.008 665.825 221.259 666.527 221.259ZM673.693 222.052L670.781 215.279H671.886L674.148 220.856L676.423 215.279H677.502L674.577 222.052H673.693Z" fill="#52525B"/>
<path d="M720.642 222V212.9H723.801C725.223 212.9 726.384 213.333 727.285 214.2C728.187 215.058 728.637 216.141 728.637 217.45C728.637 218.75 728.182 219.833 727.272 220.7C726.371 221.567 725.214 222 723.801 222H720.642ZM721.669 221.051H723.801C724.937 221.051 725.847 220.713 726.531 220.037C727.225 219.352 727.571 218.49 727.571 217.45C727.571 216.419 727.225 215.561 726.531 214.876C725.838 214.191 724.928 213.849 723.801 213.849H721.669V221.051ZM731.24 219.049C731.31 219.734 731.565 220.28 732.007 220.687C732.458 221.086 732.991 221.285 733.606 221.285C734.412 221.285 735.119 220.969 735.725 220.336L736.349 220.895C735.595 221.736 734.672 222.156 733.58 222.156C732.636 222.156 731.838 221.831 731.188 221.181C730.547 220.522 730.226 219.677 730.226 218.646C730.226 217.667 730.534 216.839 731.149 216.163C731.765 215.478 732.532 215.136 733.45 215.136C734.412 215.136 735.175 215.474 735.738 216.15C736.302 216.826 736.583 217.675 736.583 218.698C736.583 218.828 736.579 218.945 736.57 219.049H731.24ZM731.24 218.243H735.569C735.509 217.593 735.292 217.056 734.919 216.631C734.555 216.198 734.057 215.981 733.424 215.981C732.852 215.981 732.363 216.193 731.955 216.618C731.548 217.043 731.31 217.584 731.24 218.243ZM741.365 222.156C740.394 222.156 739.575 221.814 738.908 221.129C738.249 220.436 737.92 219.608 737.92 218.646C737.92 217.684 738.249 216.861 738.908 216.176C739.575 215.483 740.394 215.136 741.365 215.136C742.405 215.136 743.302 215.535 744.056 216.332L743.419 217.008C742.795 216.349 742.106 216.02 741.352 216.02C740.676 216.02 740.104 216.276 739.636 216.787C739.176 217.29 738.947 217.909 738.947 218.646C738.947 219.374 739.181 219.994 739.649 220.505C740.125 221.008 740.715 221.259 741.417 221.259C742.136 221.259 742.812 220.921 743.445 220.245L744.108 220.856C743.328 221.723 742.413 222.156 741.365 222.156Z" fill="#52525B"/>
<line x1="274.5" y1="117" x2="274.5" y2="189" stroke="#E4E4E7"/>
<circle cx="274" cy="112" r="6" fill="#4F46E5" stroke="white" stroke-width="2"/>
<g filter="url(#filter0_bd_2_50)">
<mask id="path-24-inside-1_2_50" fill="white">
<path fill-rule="evenodd" clip-rule="evenodd" d="M234 35C229.582 35 226 38.5817 226 43V84C226 88.4183 229.582 92 234 92H268.331L274 98L279.669 92H314C318.418 92 322 88.4183 322 84V43C322 38.5817 318.418 35 314 35H234Z"/>
</mask>
<path fill-rule="evenodd" clip-rule="evenodd" d="M234 35C229.582 35 226 38.5817 226 43V84C226 88.4183 229.582 92 234 92H268.331L274 98L279.669 92H314C318.418 92 322 88.4183 322 84V43C322 38.5817 318.418 35 314 35H234Z" fill="white"/>
<path d="M268.331 92L269.058 91.3133L268.762 91H268.331V92ZM274 98L273.273 98.6867L274 99.4561L274.727 98.6867L274 98ZM279.669 92V91H279.238L278.942 91.3133L279.669 92ZM227 43C227 39.134 230.134 36 234 36V34C229.029 34 225 38.0294 225 43H227ZM227 84V43H225V84H227ZM234 91C230.134 91 227 87.866 227 84H225C225 88.9706 229.029 93 234 93V91ZM268.331 91H234V93H268.331V91ZM267.605 92.6867L273.273 98.6867L274.727 97.3133L269.058 91.3133L267.605 92.6867ZM274.727 98.6867L280.395 92.6867L278.942 91.3133L273.273 97.3133L274.727 98.6867ZM314 91H279.669V93H314V91ZM321 84C321 87.866 317.866 91 314 91V93C318.971 93 323 88.9706 323 84H321ZM321 43V84H323V43H321ZM314 36C317.866 36 321 39.134 321 43H323C323 38.0294 318.971 34 314 34V36ZM234 36H314V34H234V36Z" fill="#E4E4E7" mask="url(#path-24-inside-1_2_50)"/>
</g>
<path d="M266.402 77V68.823H264.53V67.315H268.17V77H266.402ZM273.205 77.156C272.677 77.156 272.174 77.0607 271.697 76.87C271.229 76.6707 270.826 76.3933 270.488 76.038C270.159 75.674 269.934 75.245 269.812 74.751L271.359 74.205C271.515 74.647 271.754 74.985 272.074 75.219C272.395 75.4443 272.772 75.557 273.205 75.557C273.552 75.557 273.851 75.492 274.102 75.362C274.362 75.232 274.566 75.0457 274.713 74.803C274.861 74.5517 274.934 74.257 274.934 73.919C274.934 73.581 274.861 73.295 274.713 73.061C274.575 72.8183 274.375 72.632 274.115 72.502C273.855 72.372 273.548 72.307 273.192 72.307C273.028 72.307 272.854 72.3243 272.672 72.359C272.499 72.3937 272.343 72.4457 272.204 72.515L271.801 71.67L274.31 68.81H270.358V67.315H276.299V68.706L273.777 71.657L273.803 70.994C274.384 71.0027 274.891 71.1283 275.324 71.371C275.758 71.6137 276.096 71.9473 276.338 72.372C276.581 72.7967 276.702 73.295 276.702 73.867C276.702 74.491 276.551 75.0543 276.247 75.557C275.944 76.051 275.528 76.441 274.999 76.727C274.471 77.013 273.873 77.156 273.205 77.156ZM278.137 77V67.159H279.84V73.607L279.19 73.412L282.518 69.928H284.637L282.024 72.775L284.689 77H282.739L280.425 73.334L281.439 73.126L279.307 75.414L279.84 74.374V77H278.137Z" fill="#18181B"/>
<path d="M246.786 58V56.86H247.278C247.702 56.86 248.038 56.736 248.286 56.488C248.534 56.232 248.658 55.888 248.658 55.456V49.06H249.846V55.432C249.846 55.952 249.738 56.404 249.522 56.788C249.314 57.172 249.018 57.472 248.634 57.688C248.25 57.896 247.798 58 247.278 58H246.786ZM253.97 58.144C253.506 58.144 253.086 58.036 252.71 57.82C252.342 57.604 252.054 57.304 251.846 56.92C251.646 56.528 251.546 56.08 251.546 55.576V51.532H252.662V55.456C252.662 55.776 252.726 56.056 252.854 56.296C252.99 56.536 253.174 56.724 253.406 56.86C253.646 56.996 253.918 57.064 254.222 57.064C254.526 57.064 254.794 56.996 255.026 56.86C255.266 56.724 255.45 56.528 255.578 56.272C255.714 56.016 255.782 55.712 255.782 55.36V51.532H256.91V58H255.818V56.74L255.998 56.848C255.846 57.256 255.586 57.576 255.218 57.808C254.858 58.032 254.442 58.144 253.97 58.144ZM258.639 58V51.532H259.731V52.792L259.551 52.684C259.711 52.276 259.967 51.96 260.319 51.736C260.679 51.504 261.099 51.388 261.579 51.388C262.043 51.388 262.455 51.492 262.815 51.7C263.183 51.908 263.471 52.196 263.679 52.564C263.895 52.932 264.003 53.348 264.003 53.812V58H262.875V54.172C262.875 53.812 262.811 53.508 262.683 53.26C262.555 53.012 262.371 52.82 262.131 52.684C261.899 52.54 261.631 52.468 261.327 52.468C261.023 52.468 260.751 52.54 260.511 52.684C260.279 52.82 260.095 53.016 259.959 53.272C259.823 53.52 259.755 53.82 259.755 54.172V58H258.639ZM268.576 58.144C267.952 58.144 267.396 57.996 266.908 57.7C266.42 57.404 266.036 57 265.756 56.488C265.476 55.968 265.336 55.388 265.336 54.748C265.336 54.1 265.472 53.524 265.744 53.02C266.024 52.516 266.4 52.12 266.872 51.832C267.352 51.536 267.888 51.388 268.48 51.388C268.96 51.388 269.384 51.476 269.752 51.652C270.128 51.82 270.444 52.052 270.7 52.348C270.964 52.636 271.164 52.968 271.3 53.344C271.444 53.712 271.516 54.096 271.516 54.496C271.516 54.584 271.508 54.684 271.492 54.796C271.484 54.9 271.472 55 271.456 55.096H266.152V54.136H270.808L270.28 54.568C270.352 54.152 270.312 53.78 270.16 53.452C270.008 53.124 269.784 52.864 269.488 52.672C269.192 52.48 268.856 52.384 268.48 52.384C268.104 52.384 267.76 52.48 267.448 52.672C267.136 52.864 266.892 53.14 266.716 53.5C266.548 53.852 266.48 54.272 266.512 54.76C266.48 55.232 266.552 55.648 266.728 56.008C266.912 56.36 267.168 56.636 267.496 56.836C267.832 57.028 268.196 57.124 268.588 57.124C269.02 57.124 269.384 57.024 269.68 56.824C269.976 56.624 270.216 56.368 270.4 56.056L271.336 56.536C271.208 56.832 271.008 57.104 270.736 57.352C270.472 57.592 270.156 57.784 269.788 57.928C269.428 58.072 269.024 58.144 268.576 58.144ZM274.83 58V57.184L277.302 54.508C277.79 53.988 278.178 53.56 278.466 53.224C278.762 52.888 278.978 52.588 279.114 52.324C279.25 52.06 279.318 51.78 279.318 51.484C279.318 50.996 279.174 50.62 278.886 50.356C278.598 50.092 278.218 49.96 277.746 49.96C277.266 49.96 276.858 50.1 276.522 50.38C276.186 50.652 275.954 51.04 275.826 51.544L274.758 51.268C274.862 50.788 275.054 50.372 275.334 50.02C275.614 49.668 275.962 49.396 276.378 49.204C276.794 49.012 277.25 48.916 277.746 48.916C278.29 48.916 278.766 49.024 279.174 49.24C279.59 49.448 279.914 49.74 280.146 50.116C280.386 50.492 280.506 50.928 280.506 51.424C280.506 51.752 280.438 52.072 280.302 52.384C280.166 52.696 279.966 53.028 279.702 53.38C279.438 53.724 279.094 54.124 278.67 54.58L276.462 56.98H280.698V58H274.83ZM285.721 58.144C285.009 58.144 284.385 57.952 283.849 57.568C283.321 57.176 282.909 56.636 282.613 55.948C282.317 55.252 282.169 54.444 282.169 53.524C282.169 52.604 282.317 51.8 282.613 51.112C282.909 50.416 283.321 49.876 283.849 49.492C284.377 49.108 284.997 48.916 285.709 48.916C286.421 48.916 287.041 49.108 287.569 49.492C288.097 49.876 288.509 50.416 288.805 51.112C289.109 51.8 289.261 52.604 289.261 53.524C289.261 54.444 289.113 55.252 288.817 55.948C288.521 56.644 288.105 57.184 287.569 57.568C287.041 57.952 286.425 58.144 285.721 58.144ZM285.721 57.052C286.201 57.052 286.617 56.908 286.969 56.62C287.321 56.324 287.593 55.912 287.785 55.384C287.985 54.856 288.085 54.236 288.085 53.524C288.085 52.812 287.985 52.192 287.785 51.664C287.593 51.136 287.317 50.728 286.957 50.44C286.605 50.152 286.189 50.008 285.709 50.008C285.229 50.008 284.813 50.152 284.461 50.44C284.109 50.728 283.833 51.136 283.633 51.664C283.441 52.192 283.345 52.812 283.345 53.524C283.345 54.228 283.441 54.844 283.633 55.372C283.833 55.9 284.109 56.312 284.461 56.608C284.821 56.904 285.241 57.052 285.721 57.052ZM290.697 58V57.184L293.169 54.508C293.657 53.988 294.045 53.56 294.333 53.224C294.629 52.888 294.845 52.588 294.981 52.324C295.117 52.06 295.185 51.78 295.185 51.484C295.185 50.996 295.041 50.62 294.753 50.356C294.465 50.092 294.085 49.96 293.613 49.96C293.133 49.96 292.725 50.1 292.389 50.38C292.053 50.652 291.821 51.04 291.693 51.544L290.625 51.268C290.729 50.788 290.921 50.372 291.201 50.02C291.481 49.668 291.829 49.396 292.245 49.204C292.661 49.012 293.117 48.916 293.613 48.916C294.157 48.916 294.633 49.024 295.041 49.24C295.457 49.448 295.781 49.74 296.013 50.116C296.253 50.492 296.373 50.928 296.373 51.424C296.373 51.752 296.305 52.072 296.169 52.384C296.033 52.696 295.833 53.028 295.569 53.38C295.305 53.724 294.961 54.124 294.537 54.58L292.329 56.98H296.565V58H290.697ZM299.368 58V50.08H297.676V49.06H300.556V58H299.368Z" fill="#71717A"/>
<defs>
<filter id="filter0_bd_2_50" x="189" y="32" width="170" height="147" filterUnits="userSpaceOnUse" color-interpolation-filters="sRGB">
<feFlood flood-opacity="0" result="BackgroundImageFix"/>
<feGaussianBlur in="BackgroundImageFix" stdDeviation="1.5"/>
<feComposite in2="SourceAlpha" operator="in" result="effect1_backgroundBlur_2_50"/>
<feColorMatrix in="SourceAlpha" type="matrix" values="0 0 0 0 0 0 0 0 0 0 0 0 0 0 0 0 0 0 127 0" result="hardAlpha"/>
<feMorphology radius="7" operator="erode" in="SourceAlpha" result="effect2_dropShadow_2_50"/>
<feOffset dy="44"/>
<feGaussianBlur stdDeviation="22"/>
<feComposite in2="hardAlpha" operator="out"/>
<feColorMatrix type="matrix" values="0 0 0 0 0 0 0 0 0 0 0 0 0 0 0 0 0 0 0.08 0"/>
<feBlend mode="normal" in2="effect1_backgroundBlur_2_50" result="effect2_dropShadow_2_50"/>
<feBlend mode="normal" in="SourceGraphic" in2="effect2_dropShadow_2_50" result="shape"/>
</filter>
</defs>
</svg>
