<svg width="278" height="217" viewBox="0 0 278 217" fill="none" xmlns="http://www.w3.org/2000/svg">
<path d="M219.999 108.412C219.999 121.344 217.149 134.12 211.651 145.84C206.153 157.559 198.139 167.938 188.174 176.246C178.209 184.555 166.535 190.59 153.972 193.928C141.41 197.266 128.265 197.826 115.461 195.568C102.658 193.31 90.5076 188.289 79.8651 180.858C69.2226 173.428 60.3465 163.768 53.8613 152.558C47.3761 141.349 43.4394 128.862 42.328 115.977C41.2167 103.092 42.9577 90.1207 47.4287 77.9766L68.6608 85.7089C65.3258 94.7677 64.027 104.443 64.856 114.055C65.6851 123.667 68.6216 132.981 73.4592 141.343C78.2968 149.704 84.9178 156.91 92.8565 162.453C100.795 167.995 109.859 171.741 119.409 173.425C128.96 175.11 138.765 174.692 148.136 172.202C157.507 169.712 166.216 165.21 173.649 159.012C181.082 152.815 187.06 145.073 191.161 136.331C195.262 127.589 197.388 118.059 197.388 108.412H219.999Z" fill="#4425F5"/>
<path d="M45.0344 85.4998C50.6623 64.6099 63.7851 46.4919 81.9252 34.5666C100.065 22.6413 121.968 17.7337 143.497 20.7705C165.026 23.8073 184.693 34.5782 198.783 51.0498C212.874 67.5215 220.414 88.554 219.98 110.177L196.905 109.718C197.227 93.703 191.642 78.1248 181.205 65.9247C170.769 53.7246 156.202 45.7468 140.256 43.4976C124.31 41.2483 108.088 44.8832 94.6516 53.716C81.2157 62.5488 71.496 75.9683 67.3276 91.4409L45.0344 85.4998Z" fill="#4425F5"/>
<path d="M45.0344 85.4998C48.0593 74.2718 53.2782 63.7464 60.393 54.5244C67.5079 45.3024 76.3794 37.5644 86.5009 31.7524L97.8948 51.3802C90.3648 55.7041 83.7649 61.4608 78.4718 68.3215C73.1787 75.1822 69.2961 83.0127 67.0457 91.3658L45.0344 85.4998Z" fill="#16BFD6"/>
<g filter="url(#filter0_d_3_29)">
<rect x="136" y="135" width="129.5" height="26" rx="6" fill="white" shape-rendering="crispEdges"/>
<circle cx="151.375" cy="148" r="3.375" fill="#4425F5"/>
<path d="M160.036 151V145.573H157.921V144.826H163.024V145.573H160.891V151H160.036ZM165.052 151.108C164.572 151.108 164.167 151.021 163.837 150.847C163.513 150.667 163.264 150.394 163.09 150.028C162.922 149.662 162.838 149.197 162.838 148.633C162.838 148.063 162.922 147.598 163.09 147.238C163.264 146.872 163.513 146.602 163.837 146.428C164.167 146.248 164.572 146.158 165.052 146.158C165.532 146.158 165.934 146.248 166.258 146.428C166.588 146.602 166.837 146.872 167.005 147.238C167.173 147.598 167.257 148.063 167.257 148.633C167.257 149.197 167.173 149.662 167.005 150.028C166.837 150.394 166.588 150.667 166.258 150.847C165.934 151.021 165.532 151.108 165.052 151.108ZM165.052 150.442C165.358 150.442 165.613 150.382 165.817 150.262C166.021 150.142 166.174 149.956 166.276 149.704C166.384 149.446 166.438 149.122 166.438 148.732V148.534C166.438 148.138 166.384 147.814 166.276 147.562C166.174 147.31 166.021 147.124 165.817 147.004C165.613 146.884 165.358 146.824 165.052 146.824C164.746 146.824 164.488 146.884 164.278 147.004C164.074 147.124 163.921 147.31 163.819 147.562C163.717 147.814 163.666 148.138 163.666 148.534V148.732C163.666 149.122 163.717 149.446 163.819 149.704C163.921 149.956 164.074 150.142 164.278 150.262C164.488 150.382 164.746 150.442 165.052 150.442ZM169.348 151.108C169.102 151.108 168.91 151.063 168.772 150.973C168.634 150.877 168.535 150.754 168.475 150.604C168.415 150.448 168.385 150.283 168.385 150.109V146.932H167.773V146.266H168.403L168.547 144.943H169.177V146.266H170.068V146.932H169.177V149.992C169.177 150.142 169.204 150.256 169.258 150.334C169.312 150.406 169.414 150.442 169.564 150.442H170.068V150.964C170.008 150.994 169.936 151.018 169.852 151.036C169.768 151.054 169.681 151.069 169.591 151.081C169.507 151.099 169.426 151.108 169.348 151.108ZM172.101 151.108C171.927 151.108 171.753 151.087 171.579 151.045C171.405 151.003 171.243 150.934 171.093 150.838C170.943 150.742 170.823 150.61 170.733 150.442C170.643 150.268 170.598 150.052 170.598 149.794C170.598 149.47 170.676 149.203 170.832 148.993C170.988 148.783 171.204 148.621 171.48 148.507C171.762 148.387 172.095 148.306 172.479 148.264C172.863 148.216 173.28 148.192 173.73 148.192V147.652C173.73 147.478 173.7 147.328 173.64 147.202C173.58 147.076 173.472 146.98 173.316 146.914C173.166 146.842 172.95 146.806 172.668 146.806C172.398 146.806 172.182 146.842 172.02 146.914C171.864 146.98 171.753 147.067 171.687 147.175C171.627 147.283 171.597 147.403 171.597 147.535V147.67H170.832C170.826 147.64 170.823 147.61 170.823 147.58C170.823 147.55 170.823 147.514 170.823 147.472C170.823 147.184 170.901 146.944 171.057 146.752C171.219 146.554 171.444 146.407 171.732 146.311C172.02 146.209 172.35 146.158 172.722 146.158C173.118 146.158 173.448 146.215 173.712 146.329C173.982 146.443 174.183 146.605 174.315 146.815C174.453 147.025 174.522 147.277 174.522 147.571V150.136C174.522 150.25 174.549 150.331 174.603 150.379C174.657 150.421 174.723 150.442 174.801 150.442H175.152V150.964C175.068 151 174.975 151.03 174.873 151.054C174.771 151.084 174.654 151.099 174.522 151.099C174.366 151.099 174.237 151.066 174.135 151C174.033 150.94 173.955 150.856 173.901 150.748C173.847 150.634 173.811 150.508 173.793 150.37H173.73C173.622 150.52 173.484 150.652 173.316 150.766C173.154 150.874 172.971 150.958 172.767 151.018C172.563 151.078 172.341 151.108 172.101 151.108ZM172.299 150.442C172.491 150.442 172.671 150.412 172.839 150.352C173.013 150.292 173.166 150.208 173.298 150.1C173.43 149.986 173.535 149.851 173.613 149.695C173.691 149.539 173.73 149.368 173.73 149.182V148.786C173.244 148.786 172.83 148.813 172.488 148.867C172.146 148.921 171.882 149.017 171.696 149.155C171.516 149.293 171.426 149.488 171.426 149.74C171.426 149.902 171.462 150.034 171.534 150.136C171.606 150.238 171.708 150.316 171.84 150.37C171.972 150.418 172.125 150.442 172.299 150.442ZM175.817 151V144.493H176.609V151H175.817ZM179.873 151V144.826H182.924C183.35 144.826 183.704 144.907 183.986 145.069C184.268 145.225 184.478 145.444 184.616 145.726C184.76 146.008 184.832 146.335 184.832 146.707C184.832 147.085 184.754 147.421 184.598 147.715C184.442 148.003 184.22 148.228 183.932 148.39C183.65 148.552 183.311 148.633 182.915 148.633H180.728V151H179.873ZM180.728 147.895H182.861C183.197 147.895 183.464 147.79 183.662 147.58C183.866 147.37 183.968 147.082 183.968 146.716C183.968 146.47 183.926 146.263 183.842 146.095C183.758 145.927 183.635 145.798 183.473 145.708C183.311 145.612 183.107 145.564 182.861 145.564H180.728V147.895ZM186.805 151.108C186.631 151.108 186.457 151.087 186.283 151.045C186.109 151.003 185.947 150.934 185.797 150.838C185.647 150.742 185.527 150.61 185.437 150.442C185.347 150.268 185.302 150.052 185.302 149.794C185.302 149.47 185.38 149.203 185.536 148.993C185.692 148.783 185.908 148.621 186.184 148.507C186.466 148.387 186.799 148.306 187.183 148.264C187.567 148.216 187.984 148.192 188.434 148.192V147.652C188.434 147.478 188.404 147.328 188.344 147.202C188.284 147.076 188.176 146.98 188.02 146.914C187.87 146.842 187.654 146.806 187.372 146.806C187.102 146.806 186.886 146.842 186.724 146.914C186.568 146.98 186.457 147.067 186.391 147.175C186.331 147.283 186.301 147.403 186.301 147.535V147.67H185.536C185.53 147.64 185.527 147.61 185.527 147.58C185.527 147.55 185.527 147.514 185.527 147.472C185.527 147.184 185.605 146.944 185.761 146.752C185.923 146.554 186.148 146.407 186.436 146.311C186.724 146.209 187.054 146.158 187.426 146.158C187.822 146.158 188.152 146.215 188.416 146.329C188.686 146.443 188.887 146.605 189.019 146.815C189.157 147.025 189.226 147.277 189.226 147.571V150.136C189.226 150.25 189.253 150.331 189.307 150.379C189.361 150.421 189.427 150.442 189.505 150.442H189.856V150.964C189.772 151 189.679 151.03 189.577 151.054C189.475 151.084 189.358 151.099 189.226 151.099C189.07 151.099 188.941 151.066 188.839 151C188.737 150.94 188.659 150.856 188.605 150.748C188.551 150.634 188.515 150.508 188.497 150.37H188.434C188.326 150.52 188.188 150.652 188.02 150.766C187.858 150.874 187.675 150.958 187.471 151.018C187.267 151.078 187.045 151.108 186.805 151.108ZM187.003 150.442C187.195 150.442 187.375 150.412 187.543 150.352C187.717 150.292 187.87 150.208 188.002 150.1C188.134 149.986 188.239 149.851 188.317 149.695C188.395 149.539 188.434 149.368 188.434 149.182V148.786C187.948 148.786 187.534 148.813 187.192 148.867C186.85 148.921 186.586 149.017 186.4 149.155C186.22 149.293 186.13 149.488 186.13 149.74C186.13 149.902 186.166 150.034 186.238 150.136C186.31 150.238 186.412 150.316 186.544 150.37C186.676 150.418 186.829 150.442 187.003 150.442ZM190.926 152.638C190.782 152.638 190.656 152.626 190.548 152.602C190.446 152.584 190.377 152.572 190.341 152.566V151.99H190.737C190.881 151.99 191.022 151.96 191.16 151.9C191.298 151.84 191.427 151.738 191.547 151.594C191.667 151.45 191.769 151.252 191.853 151L190.017 146.266H190.845L191.79 148.705C191.832 148.819 191.88 148.96 191.934 149.128C191.994 149.29 192.051 149.458 192.105 149.632C192.165 149.806 192.213 149.959 192.249 150.091H192.303C192.327 149.995 192.357 149.887 192.393 149.767C192.429 149.647 192.465 149.524 192.501 149.398C192.543 149.266 192.582 149.143 192.618 149.029C192.66 148.909 192.693 148.804 192.717 148.714L193.518 146.266H194.319L192.717 150.865C192.627 151.123 192.528 151.36 192.42 151.576C192.312 151.798 192.192 151.987 192.06 152.143C191.928 152.299 191.769 152.419 191.583 152.503C191.397 152.593 191.178 152.638 190.926 152.638ZM196.957 151.108C196.477 151.108 196.072 151.021 195.742 150.847C195.418 150.667 195.169 150.394 194.995 150.028C194.827 149.662 194.743 149.197 194.743 148.633C194.743 148.063 194.827 147.598 194.995 147.238C195.169 146.872 195.418 146.602 195.742 146.428C196.072 146.248 196.477 146.158 196.957 146.158C197.437 146.158 197.839 146.248 198.163 146.428C198.493 146.602 198.742 146.872 198.91 147.238C199.078 147.598 199.162 148.063 199.162 148.633C199.162 149.197 199.078 149.662 198.91 150.028C198.742 150.394 198.493 150.667 198.163 150.847C197.839 151.021 197.437 151.108 196.957 151.108ZM196.957 150.442C197.263 150.442 197.518 150.382 197.722 150.262C197.926 150.142 198.079 149.956 198.181 149.704C198.289 149.446 198.343 149.122 198.343 148.732V148.534C198.343 148.138 198.289 147.814 198.181 147.562C198.079 147.31 197.926 147.124 197.722 147.004C197.518 146.884 197.263 146.824 196.957 146.824C196.651 146.824 196.393 146.884 196.183 147.004C195.979 147.124 195.826 147.31 195.724 147.562C195.622 147.814 195.571 148.138 195.571 148.534V148.732C195.571 149.122 195.622 149.446 195.724 149.704C195.826 149.956 195.979 150.142 196.183 150.262C196.393 150.382 196.651 150.442 196.957 150.442ZM201.612 151.108C201.156 151.108 200.79 150.991 200.514 150.757C200.238 150.523 200.1 150.115 200.1 149.533V146.266H200.892V149.425C200.892 149.623 200.916 149.785 200.964 149.911C201.012 150.037 201.081 150.136 201.171 150.208C201.261 150.28 201.366 150.331 201.486 150.361C201.612 150.391 201.747 150.406 201.891 150.406C202.119 150.406 202.329 150.352 202.521 150.244C202.713 150.136 202.869 149.98 202.989 149.776C203.115 149.566 203.178 149.323 203.178 149.047V146.266H203.97V151H203.331L203.259 150.289H203.196C203.07 150.481 202.926 150.637 202.764 150.757C202.608 150.877 202.431 150.964 202.233 151.018C202.041 151.078 201.834 151.108 201.612 151.108ZM206.306 151.108C206.06 151.108 205.868 151.063 205.73 150.973C205.592 150.877 205.493 150.754 205.433 150.604C205.373 150.448 205.343 150.283 205.343 150.109V146.932H204.731V146.266H205.361L205.505 144.943H206.135V146.266H207.026V146.932H206.135V149.992C206.135 150.142 206.162 150.256 206.216 150.334C206.27 150.406 206.372 150.442 206.522 150.442H207.026V150.964C206.966 150.994 206.894 151.018 206.81 151.036C206.726 151.054 206.639 151.069 206.549 151.081C206.465 151.099 206.384 151.108 206.306 151.108Z" fill="#606060"/>
<path d="M216.678 152.413C216.174 151.855 215.787 151.231 215.517 150.541C215.247 149.845 215.112 149.125 215.112 148.381C215.112 147.649 215.247 146.935 215.517 146.239C215.787 145.543 216.174 144.922 216.678 144.376H217.281C217.047 144.742 216.831 145.144 216.633 145.582C216.441 146.02 216.288 146.479 216.174 146.959C216.066 147.433 216.012 147.907 216.012 148.381C216.012 148.861 216.066 149.341 216.174 149.821C216.288 150.301 216.441 150.76 216.633 151.198C216.831 151.642 217.047 152.047 217.281 152.413H216.678ZM218.158 151V150.721C218.158 150.463 218.206 150.226 218.302 150.01C218.404 149.788 218.536 149.587 218.698 149.407C218.866 149.227 219.052 149.056 219.256 148.894C219.46 148.732 219.667 148.576 219.877 148.426C220.153 148.228 220.408 148.03 220.642 147.832C220.876 147.634 221.065 147.421 221.209 147.193C221.359 146.965 221.434 146.71 221.434 146.428C221.434 146.266 221.395 146.116 221.317 145.978C221.245 145.84 221.131 145.729 220.975 145.645C220.819 145.555 220.615 145.51 220.363 145.51C220.087 145.51 219.862 145.558 219.688 145.654C219.52 145.744 219.394 145.87 219.31 146.032C219.232 146.188 219.193 146.371 219.193 146.581V146.95H218.257C218.251 146.92 218.245 146.875 218.239 146.815C218.233 146.755 218.23 146.68 218.23 146.59C218.23 146.146 218.329 145.789 218.527 145.519C218.731 145.243 218.998 145.042 219.328 144.916C219.664 144.784 220.024 144.718 220.408 144.718C220.78 144.718 221.092 144.772 221.344 144.88C221.602 144.982 221.806 145.12 221.956 145.294C222.112 145.468 222.223 145.66 222.289 145.87C222.361 146.08 222.397 146.284 222.397 146.482C222.397 146.77 222.346 147.031 222.244 147.265C222.148 147.499 222.01 147.718 221.83 147.922C221.656 148.126 221.449 148.324 221.209 148.516C220.975 148.702 220.723 148.888 220.453 149.074C220.285 149.188 220.12 149.305 219.958 149.425C219.802 149.545 219.664 149.668 219.544 149.794C219.424 149.914 219.343 150.031 219.301 150.145H222.433V151H218.158ZM225.433 151.108C225.103 151.108 224.803 151.06 224.533 150.964C224.269 150.862 224.044 150.691 223.858 150.451C223.678 150.211 223.537 149.887 223.435 149.479C223.339 149.065 223.291 148.543 223.291 147.913C223.291 147.283 223.339 146.764 223.435 146.356C223.537 145.942 223.678 145.615 223.858 145.375C224.044 145.135 224.269 144.967 224.533 144.871C224.803 144.769 225.103 144.718 225.433 144.718C225.769 144.718 226.069 144.769 226.333 144.871C226.597 144.967 226.819 145.135 226.999 145.375C227.185 145.615 227.326 145.942 227.422 146.356C227.524 146.764 227.575 147.283 227.575 147.913C227.575 148.543 227.524 149.065 227.422 149.479C227.326 149.887 227.185 150.211 226.999 150.451C226.819 150.691 226.597 150.862 226.333 150.964C226.069 151.06 225.769 151.108 225.433 151.108ZM225.433 150.334C225.751 150.334 225.991 150.253 226.153 150.091C226.321 149.923 226.438 149.677 226.504 149.353C226.57 149.029 226.603 148.627 226.603 148.147V147.706C226.603 147.214 226.57 146.806 226.504 146.482C226.438 146.152 226.321 145.906 226.153 145.744C225.991 145.576 225.751 145.492 225.433 145.492C225.121 145.492 224.881 145.576 224.713 145.744C224.545 145.906 224.428 146.149 224.362 146.473C224.296 146.797 224.263 147.202 224.263 147.688V148.129C224.263 148.609 224.296 149.014 224.362 149.344C224.428 149.674 224.545 149.923 224.713 150.091C224.881 150.253 225.121 150.334 225.433 150.334ZM228.81 151V149.956H229.809V151H228.81ZM233.193 151.108C232.863 151.108 232.563 151.06 232.293 150.964C232.029 150.862 231.804 150.691 231.618 150.451C231.438 150.211 231.297 149.887 231.195 149.479C231.099 149.065 231.051 148.543 231.051 147.913C231.051 147.283 231.099 146.764 231.195 146.356C231.297 145.942 231.438 145.615 231.618 145.375C231.804 145.135 232.029 144.967 232.293 144.871C232.563 144.769 232.863 144.718 233.193 144.718C233.529 144.718 233.829 144.769 234.093 144.871C234.357 144.967 234.579 145.135 234.759 145.375C234.945 145.615 235.086 145.942 235.182 146.356C235.284 146.764 235.335 147.283 235.335 147.913C235.335 148.543 235.284 149.065 235.182 149.479C235.086 149.887 234.945 150.211 234.759 150.451C234.579 150.691 234.357 150.862 234.093 150.964C233.829 151.06 233.529 151.108 233.193 151.108ZM233.193 150.334C233.511 150.334 233.751 150.253 233.913 150.091C234.081 149.923 234.198 149.677 234.264 149.353C234.33 149.029 234.363 148.627 234.363 148.147V147.706C234.363 147.214 234.33 146.806 234.264 146.482C234.198 146.152 234.081 145.906 233.913 145.744C233.751 145.576 233.511 145.492 233.193 145.492C232.881 145.492 232.641 145.576 232.473 145.744C232.305 145.906 232.188 146.149 232.122 146.473C232.056 146.797 232.023 147.202 232.023 147.688V148.129C232.023 148.609 232.056 149.014 232.122 149.344C232.188 149.674 232.305 149.923 232.473 150.091C232.641 150.253 232.881 150.334 233.193 150.334ZM238.37 151.108C237.854 151.108 237.434 151.027 237.11 150.865C236.792 150.703 236.558 150.487 236.408 150.217C236.264 149.941 236.192 149.638 236.192 149.308C236.192 148.972 236.273 148.678 236.435 148.426C236.597 148.168 236.855 147.97 237.209 147.832C236.927 147.682 236.714 147.484 236.57 147.238C236.426 146.992 236.354 146.722 236.354 146.428C236.354 146.11 236.429 145.822 236.579 145.564C236.729 145.306 236.954 145.102 237.254 144.952C237.554 144.796 237.926 144.718 238.37 144.718C238.814 144.718 239.183 144.796 239.477 144.952C239.771 145.102 239.993 145.306 240.143 145.564C240.299 145.822 240.377 146.11 240.377 146.428C240.377 146.722 240.302 146.992 240.152 147.238C240.008 147.484 239.795 147.682 239.513 147.832C239.873 147.97 240.131 148.168 240.287 148.426C240.449 148.678 240.53 148.972 240.53 149.308C240.53 149.638 240.455 149.941 240.305 150.217C240.161 150.487 239.93 150.703 239.612 150.865C239.294 151.027 238.88 151.108 238.37 151.108ZM238.37 150.343C238.76 150.343 239.057 150.25 239.261 150.064C239.465 149.872 239.567 149.611 239.567 149.281C239.567 148.951 239.465 148.693 239.261 148.507C239.057 148.321 238.76 148.228 238.37 148.228C237.974 148.228 237.671 148.321 237.461 148.507C237.257 148.693 237.155 148.951 237.155 149.281C237.155 149.611 237.257 149.872 237.461 150.064C237.671 150.25 237.974 150.343 238.37 150.343ZM238.37 147.463C238.694 147.463 238.949 147.379 239.135 147.211C239.327 147.037 239.423 146.791 239.423 146.473C239.423 146.161 239.33 145.918 239.144 145.744C238.958 145.57 238.7 145.483 238.37 145.483C238.034 145.483 237.77 145.57 237.578 145.744C237.392 145.918 237.299 146.161 237.299 146.473C237.299 146.791 237.392 147.037 237.578 147.211C237.77 147.379 238.034 147.463 238.37 147.463ZM242.638 151L247.129 144.826H247.921L243.421 151H242.638ZM243.187 147.967C242.893 147.967 242.638 147.919 242.422 147.823C242.212 147.721 242.05 147.553 241.936 147.319C241.822 147.085 241.765 146.761 241.765 146.347C241.765 145.927 241.822 145.6 241.936 145.366C242.05 145.132 242.212 144.967 242.422 144.871C242.638 144.769 242.893 144.718 243.187 144.718C243.481 144.718 243.73 144.769 243.934 144.871C244.144 144.967 244.306 145.132 244.42 145.366C244.534 145.6 244.591 145.927 244.591 146.347C244.591 146.761 244.534 147.088 244.42 147.328C244.306 147.562 244.144 147.727 243.934 147.823C243.73 147.919 243.481 147.967 243.187 147.967ZM243.187 147.373C243.445 147.373 243.616 147.286 243.7 147.112C243.784 146.938 243.826 146.698 243.826 146.392V146.293C243.826 146.089 243.808 145.915 243.772 145.771C243.736 145.621 243.67 145.507 243.574 145.429C243.484 145.351 243.355 145.312 243.187 145.312C242.929 145.312 242.755 145.399 242.665 145.573C242.581 145.747 242.539 145.987 242.539 146.293V146.392C242.539 146.698 242.581 146.938 242.665 147.112C242.755 147.286 242.929 147.373 243.187 147.373ZM247.363 151.108C247.075 151.108 246.823 151.06 246.607 150.964C246.397 150.862 246.235 150.694 246.121 150.46C246.007 150.226 245.95 149.902 245.95 149.488C245.95 149.068 246.007 148.741 246.121 148.507C246.235 148.273 246.397 148.108 246.607 148.012C246.823 147.91 247.075 147.859 247.363 147.859C247.657 147.859 247.909 147.91 248.119 148.012C248.329 148.108 248.488 148.273 248.596 148.507C248.71 148.741 248.767 149.068 248.767 149.488C248.767 149.902 248.71 150.229 248.596 150.469C248.488 150.703 248.329 150.868 248.119 150.964C247.909 151.06 247.657 151.108 247.363 151.108ZM247.363 150.514C247.621 150.514 247.792 150.427 247.876 150.253C247.96 150.079 248.002 149.839 248.002 149.533V149.434C248.002 149.23 247.984 149.056 247.948 148.912C247.918 148.762 247.855 148.648 247.759 148.57C247.669 148.492 247.537 148.453 247.363 148.453C247.111 148.453 246.94 148.54 246.85 148.714C246.766 148.888 246.724 149.128 246.724 149.434V149.533C246.724 149.839 246.766 150.079 246.85 150.253C246.94 150.427 247.111 150.514 247.363 150.514ZM250.603 144.385C251.113 144.943 251.5 145.57 251.764 146.266C252.034 146.956 252.169 147.673 252.169 148.417C252.169 149.149 252.034 149.863 251.764 150.559C251.5 151.249 251.113 151.87 250.603 152.422H250C250.24 152.056 250.456 151.654 250.648 151.216C250.84 150.778 250.99 150.322 251.098 149.848C251.212 149.368 251.269 148.891 251.269 148.417C251.269 147.937 251.212 147.457 251.098 146.977C250.99 146.497 250.84 146.038 250.648 145.6C250.456 145.156 250.24 144.751 250 144.385H250.603Z" fill="#1D1D21"/>
</g>
<g filter="url(#filter1_d_3_29)">
<rect x="12" y="56" width="124.64" height="24.1526" rx="5.57629" fill="white" shape-rendering="crispEdges"/>
<circle cx="26.2891" cy="68.0763" r="3.13666" fill="#16BFD6"/>
<path d="M34.3385 70.5764V65.5327H32.3729V64.8384H37.1155V65.5327H35.1331V70.5764H34.3385ZM39.0006 70.6768C38.5545 70.6768 38.1781 70.5959 37.8714 70.4342C37.5702 70.2669 37.3388 70.0132 37.1771 69.6731C37.021 69.3329 36.9429 68.9007 36.9429 68.3766C36.9429 67.8468 37.021 67.4147 37.1771 67.0801C37.3388 66.7399 37.5702 66.489 37.8714 66.3273C38.1781 66.16 38.5545 66.0764 39.0006 66.0764C39.4467 66.0764 39.8203 66.16 40.1214 66.3273C40.4281 66.489 40.6595 66.7399 40.8156 67.0801C40.9718 67.4147 41.0498 67.8468 41.0498 68.3766C41.0498 68.9007 40.9718 69.3329 40.8156 69.6731C40.6595 70.0132 40.4281 70.2669 40.1214 70.4342C39.8203 70.5959 39.4467 70.6768 39.0006 70.6768ZM39.0006 70.0578C39.2849 70.0578 39.5219 70.0021 39.7115 69.8905C39.9011 69.779 40.0433 69.6061 40.1381 69.3719C40.2385 69.1322 40.2887 68.831 40.2887 68.4686V68.2846C40.2887 67.9165 40.2385 67.6154 40.1381 67.3812C40.0433 67.147 39.9011 66.9741 39.7115 66.8626C39.5219 66.7511 39.2849 66.6953 39.0006 66.6953C38.7162 66.6953 38.4764 66.7511 38.2812 66.8626C38.0916 66.9741 37.9494 67.147 37.8546 67.3812C37.7598 67.6154 37.7124 67.9165 37.7124 68.2846V68.4686C37.7124 68.831 37.7598 69.1322 37.8546 69.3719C37.9494 69.6061 38.0916 69.779 38.2812 69.8905C38.4764 70.0021 38.7162 70.0578 39.0006 70.0578ZM42.993 70.6768C42.7644 70.6768 42.5859 70.635 42.4577 70.5513C42.3294 70.4621 42.2374 70.3478 42.1817 70.2084C42.1259 70.0634 42.098 69.91 42.098 69.7483V66.7957H41.5292V66.1767H42.1147L42.2486 64.9472H42.8341V66.1767H43.6622V66.7957H42.8341V69.6396C42.8341 69.779 42.8592 69.885 42.9094 69.9574C42.9595 70.0244 43.0543 70.0578 43.1937 70.0578H43.6622V70.543C43.6064 70.5708 43.5395 70.5931 43.4614 70.6099C43.3833 70.6266 43.3025 70.6405 43.2188 70.6517C43.1408 70.6684 43.0655 70.6768 42.993 70.6768ZM45.5515 70.6768C45.3898 70.6768 45.228 70.6573 45.0663 70.6182C44.9046 70.5792 44.7541 70.5151 44.6147 70.4259C44.4752 70.3366 44.3637 70.214 44.2801 70.0578C44.1964 69.8961 44.1546 69.6954 44.1546 69.4556C44.1546 69.1545 44.2271 68.9063 44.3721 68.7111C44.5171 68.516 44.7178 68.3654 44.9743 68.2595C45.2364 68.1479 45.5459 68.0727 45.9028 68.0336C46.2597 67.989 46.6472 67.9667 47.0654 67.9667V67.4648C47.0654 67.3031 47.0376 67.1637 46.9818 67.0466C46.926 66.9295 46.8257 66.8403 46.6807 66.779C46.5413 66.712 46.3405 66.6786 46.0784 66.6786C45.8275 66.6786 45.6267 66.712 45.4762 66.779C45.3312 66.8403 45.228 66.9212 45.1667 67.0215C45.1109 67.1219 45.0831 67.2334 45.0831 67.3561V67.4816H44.3721C44.3665 67.4537 44.3637 67.4258 44.3637 67.3979C44.3637 67.3701 44.3637 67.3366 44.3637 67.2976C44.3637 67.0299 44.4362 66.8068 44.5812 66.6284C44.7318 66.4444 44.9409 66.3078 45.2085 66.2185C45.4762 66.1238 45.7829 66.0764 46.1286 66.0764C46.4967 66.0764 46.8033 66.1293 47.0487 66.2353C47.2996 66.3412 47.4864 66.4918 47.6091 66.687C47.7374 66.8821 47.8015 67.1163 47.8015 67.3896V69.7734C47.8015 69.8794 47.8266 69.9547 47.8768 69.9993C47.927 70.0383 47.9883 70.0578 48.0608 70.0578H48.387V70.543C48.3089 70.5764 48.2225 70.6043 48.1277 70.6266C48.0329 70.6545 47.9242 70.6684 47.8015 70.6684C47.6565 70.6684 47.5366 70.6378 47.4418 70.5764C47.347 70.5207 47.2745 70.4426 47.2244 70.3422C47.1742 70.2363 47.1407 70.1192 47.124 69.9909H47.0654C46.9651 70.1303 46.8368 70.253 46.6807 70.3589C46.5301 70.4593 46.36 70.5374 46.1704 70.5931C45.9808 70.6489 45.7745 70.6768 45.5515 70.6768ZM45.7355 70.0578C45.9139 70.0578 46.0812 70.0299 46.2374 69.9742C46.3991 69.9184 46.5413 69.8403 46.6639 69.74C46.7866 69.634 46.8842 69.5086 46.9567 69.3636C47.0292 69.2186 47.0654 69.0597 47.0654 68.8868V68.5188C46.6138 68.5188 46.229 68.5439 45.9111 68.594C45.5933 68.6442 45.3479 68.7335 45.1751 68.8617C45.0078 68.99 44.9241 69.1712 44.9241 69.4054C44.9241 69.556 44.9576 69.6786 45.0245 69.7734C45.0914 69.8682 45.1862 69.9407 45.3089 69.9909C45.4316 70.0355 45.5738 70.0578 45.7355 70.0578ZM49.0053 70.5764V64.5289H49.7414V70.5764H49.0053ZM52.7743 70.5764V64.8384H56.8394V65.5243H53.5689V67.3645H56.5466V68.042H53.5689V70.5764H52.7743ZM59.1171 70.6768C58.6933 70.6768 58.3531 70.5681 58.0966 70.3506C57.8401 70.1331 57.7118 69.7539 57.7118 69.213V66.1767H58.4479V69.1126C58.4479 69.2967 58.4702 69.4472 58.5148 69.5643C58.5594 69.6814 58.6236 69.7734 58.7072 69.8403C58.7909 69.9073 58.8884 69.9547 59 69.9825C59.1171 70.0104 59.2425 70.0244 59.3764 70.0244C59.5883 70.0244 59.7834 69.9742 59.9619 69.8738C60.1403 69.7734 60.2853 69.6284 60.3968 69.4389C60.5139 69.2437 60.5725 69.0178 60.5725 68.7613V66.1767H61.3086V70.5764H60.7147L60.6478 69.9156H60.5892C60.4721 70.0941 60.3383 70.2391 60.1877 70.3506C60.0427 70.4621 59.8782 70.543 59.6942 70.5931C59.5158 70.6489 59.3234 70.6768 59.1171 70.6768ZM62.4505 70.5764V66.1767H63.0444L63.1113 66.8375H63.1698C63.2869 66.6591 63.418 66.5141 63.563 66.4026C63.7135 66.291 63.878 66.2102 64.0565 66.16C64.2405 66.1042 64.4357 66.0764 64.642 66.0764C64.9208 66.0764 65.1634 66.1238 65.3697 66.2185C65.5816 66.3133 65.7461 66.4667 65.8632 66.6786C65.9859 66.8905 66.0472 67.1777 66.0472 67.5401V70.5764H65.3111V67.6405C65.3111 67.4565 65.286 67.3059 65.2358 67.1888C65.1912 67.0717 65.1271 66.9797 65.0435 66.9128C64.9654 66.8459 64.8678 66.7985 64.7507 66.7706C64.6392 66.7427 64.5137 66.7288 64.3743 66.7288C64.168 66.7288 63.9728 66.779 63.7888 66.8793C63.6048 66.9797 63.457 67.1247 63.3455 67.3143C63.2395 67.5039 63.1866 67.7297 63.1866 67.9918V70.5764H62.4505ZM68.6609 70.6768C68.2984 70.6768 67.9862 70.5959 67.7241 70.4342C67.4676 70.2725 67.2668 70.0216 67.1218 69.6814C66.9824 69.3357 66.9127 68.8896 66.9127 68.3431C66.9127 67.8245 66.9852 67.3979 67.1302 67.0634C67.2752 66.7288 67.4759 66.4806 67.7324 66.3189C67.9889 66.1572 68.2873 66.0764 68.6274 66.0764C68.8226 66.0764 69.0038 66.0987 69.1711 66.1433C69.3384 66.1879 69.4862 66.2576 69.6144 66.3524C69.7483 66.4472 69.8654 66.5726 69.9657 66.7288H70.0159V64.5289H70.752V70.5764H70.1581L70.0912 69.9491H70.0327C69.8821 70.1944 69.6869 70.3785 69.4471 70.5011C69.2074 70.6182 68.9453 70.6768 68.6609 70.6768ZM68.8365 70.0327C69.1154 70.0327 69.3412 69.9714 69.5141 69.8487C69.6869 69.726 69.8124 69.5476 69.8905 69.3134C69.9741 69.0792 70.0159 68.7892 70.0159 68.4435V68.3097C70.0159 68.0085 69.9853 67.7548 69.9239 67.5485C69.8626 67.3422 69.7789 67.1777 69.673 67.055C69.567 66.9323 69.4444 66.8459 69.3049 66.7957C69.1655 66.7455 69.0178 66.7204 68.8616 66.7204C68.5884 66.7204 68.3653 66.7762 68.1925 66.8877C68.0196 66.9937 67.8914 67.1637 67.8077 67.3979C67.7241 67.6266 67.6823 67.9249 67.6823 68.2929V68.4686C67.6823 68.8478 67.7269 69.1545 67.8161 69.3887C67.9053 69.6173 68.0336 69.7818 68.2008 69.8822C68.3737 69.9825 68.5856 70.0327 68.8365 70.0327ZM71.9095 65.3486V64.5289H72.6456V65.3486H71.9095ZM71.9095 70.5764V66.1767H72.6456V70.5764H71.9095ZM73.7882 70.5764V66.1767H74.3821L74.449 66.8375H74.5076C74.6247 66.6591 74.7557 66.5141 74.9007 66.4026C75.0512 66.291 75.2157 66.2102 75.3942 66.16C75.5782 66.1042 75.7734 66.0764 75.9797 66.0764C76.2585 66.0764 76.5011 66.1238 76.7074 66.2185C76.9193 66.3133 77.0838 66.4667 77.2009 66.6786C77.3236 66.8905 77.3849 67.1777 77.3849 67.5401V70.5764H76.6489V67.6405C76.6489 67.4565 76.6238 67.3059 76.5736 67.1888C76.529 67.0717 76.4648 66.9797 76.3812 66.9128C76.3031 66.8459 76.2055 66.7985 76.0884 66.7706C75.9769 66.7427 75.8514 66.7288 75.712 66.7288C75.5057 66.7288 75.3105 66.779 75.1265 66.8793C74.9425 66.9797 74.7947 67.1247 74.6832 67.3143C74.5773 67.5039 74.5243 67.7297 74.5243 67.9918V70.5764H73.7882ZM79.2458 72.0987C79.0339 72.0987 78.8387 72.0541 78.6603 71.9649C78.4819 71.8813 78.3397 71.7586 78.2337 71.5969C78.1278 71.4352 78.0748 71.2428 78.0748 71.0197C78.0748 70.7744 78.1417 70.5708 78.2755 70.4091C78.4149 70.2474 78.5794 70.1275 78.769 70.0495C78.6296 69.9825 78.5209 69.8905 78.4428 69.7734C78.3648 69.6508 78.3257 69.5169 78.3257 69.3719C78.3257 69.1768 78.3954 69.0123 78.5348 68.8784C78.6798 68.7446 78.8555 68.6554 79.0618 68.6108C78.8722 68.4881 78.7216 68.332 78.6101 68.1424C78.5042 67.9472 78.4512 67.7325 78.4512 67.4983C78.4512 67.2195 78.5153 66.9741 78.6436 66.7622C78.7774 66.5503 78.9782 66.383 79.2458 66.2604C79.5191 66.1377 79.8508 66.0764 80.2412 66.0764C80.4196 66.0764 80.5869 66.0903 80.743 66.1182C80.8992 66.1405 81.0386 66.1795 81.1613 66.2353C81.3564 66.1461 81.5014 66.0317 81.5962 65.8923C81.6966 65.7529 81.7579 65.6107 81.7802 65.4657H82.5079C82.5079 65.633 82.4689 65.792 82.3908 65.9425C82.3183 66.0875 82.218 66.2102 82.0897 66.3106C81.9615 66.4054 81.8053 66.4695 81.6213 66.5029C81.7607 66.6368 81.8639 66.7873 81.9308 66.9546C82.0033 67.1219 82.0395 67.3031 82.0395 67.4983C82.0395 67.7771 81.9726 68.0253 81.8388 68.2427C81.7105 68.4546 81.5154 68.6219 81.2533 68.7446C80.9912 68.8673 80.6622 68.9286 80.2663 68.9286H79.5804C79.4298 68.9286 79.3072 68.9593 79.2124 69.0206C79.1176 69.0764 79.0702 69.1684 79.0702 69.2967C79.0702 69.4082 79.1176 69.5002 79.2124 69.5727C79.3072 69.6396 79.4298 69.6731 79.5804 69.6731H81.3704C81.6938 69.6731 81.9587 69.7818 82.165 69.9993C82.3713 70.2112 82.4745 70.4844 82.4745 70.819C82.4745 71.0588 82.4131 71.2735 82.2905 71.463C82.1734 71.6582 82.0061 71.8116 81.7886 71.9231C81.5767 72.0402 81.3286 72.0987 81.0442 72.0987H79.2458ZM79.4549 71.5383H81.0358C81.1641 71.5383 81.2812 71.5104 81.3871 71.4547C81.4931 71.4045 81.5767 71.332 81.638 71.2372C81.6994 71.1424 81.73 71.0392 81.73 70.9277C81.73 70.7381 81.6743 70.5876 81.5628 70.476C81.4512 70.3645 81.3118 70.3088 81.1445 70.3088H79.4549C79.2765 70.3088 79.1259 70.3701 79.0032 70.4928C78.8806 70.6099 78.8192 70.7549 78.8192 70.9277C78.8192 71.1117 78.8806 71.2595 79.0032 71.371C79.1259 71.4826 79.2765 71.5383 79.4549 71.5383ZM80.2495 68.3766C80.6064 68.3766 80.8713 68.2985 81.0442 68.1424C81.217 67.9862 81.3035 67.7715 81.3035 67.4983C81.3035 67.2306 81.217 67.0187 81.0442 66.8626C80.8713 66.7065 80.6064 66.6284 80.2495 66.6284C79.8927 66.6284 79.625 66.7065 79.4466 66.8626C79.2737 67.0187 79.1873 67.2306 79.1873 67.4983C79.1873 67.6712 79.2263 67.8245 79.3044 67.9583C79.3824 68.0922 79.4995 68.1953 79.6557 68.2678C79.8118 68.3403 80.0098 68.3766 80.2495 68.3766Z" fill="#606060"/>
<path d="M91.5114 71.8895C91.043 71.3709 90.6833 70.791 90.4324 70.1497C90.1814 69.5029 90.056 68.8337 90.056 68.1422C90.056 67.4619 90.1814 66.7984 90.4324 66.1515C90.6833 65.5047 91.043 64.9275 91.5114 64.4201H92.0718C91.8543 64.7602 91.6536 65.1338 91.4696 65.5409C91.2911 65.948 91.1489 66.3746 91.043 66.8207C90.9426 67.2612 90.8924 67.7017 90.8924 68.1422C90.8924 68.5883 90.9426 69.0345 91.043 69.4806C91.1489 69.9267 91.2911 70.3532 91.4696 70.7603C91.6536 71.173 91.8543 71.5494 92.0718 71.8895H91.5114ZM94.886 70.6767C94.4399 70.6767 94.0635 70.607 93.7568 70.4676C93.4556 70.3281 93.2242 70.1302 93.0625 69.8737C92.9064 69.6172 92.8283 69.3161 92.8283 68.9703V68.8616H93.7066V68.9871C93.7066 69.2993 93.8042 69.5391 93.9993 69.7064C94.2001 69.8737 94.4789 69.9573 94.8358 69.9573C95.1815 69.9573 95.4575 69.8793 95.6639 69.7231C95.8758 69.567 95.9817 69.3161 95.9817 68.9703C95.9817 68.7194 95.9259 68.527 95.8144 68.3932C95.7029 68.2538 95.5551 68.1562 95.3711 68.1004C95.1871 68.0447 94.9919 68.0168 94.7856 68.0168H94.2419V67.2974H94.8107C95.0003 67.2974 95.1731 67.2668 95.3293 67.2054C95.491 67.1385 95.6192 67.0354 95.714 66.8959C95.8144 66.751 95.8646 66.5669 95.8646 66.3439C95.8646 66.1376 95.82 65.9703 95.7308 65.842C95.6471 65.7138 95.53 65.619 95.3795 65.5576C95.2289 65.4907 95.0616 65.4573 94.8776 65.4573C94.6824 65.4573 94.504 65.4935 94.3423 65.566C94.1861 65.6329 94.0635 65.7333 93.9742 65.8671C93.885 66.001 93.8404 66.171 93.8404 66.3773V66.5028H92.9538V66.3272C92.9538 66.0093 93.0346 65.7305 93.1964 65.4907C93.3636 65.2509 93.5895 65.0669 93.8739 64.9387C94.1638 64.8048 94.4928 64.7379 94.8609 64.7379C95.2345 64.7379 95.5635 64.7993 95.8479 64.9219C96.1378 65.039 96.3609 65.2147 96.517 65.4489C96.6787 65.6775 96.7596 65.9591 96.7596 66.2937C96.7596 66.5279 96.7178 66.7287 96.6341 66.8959C96.5505 67.0632 96.4362 67.2026 96.2912 67.3142C96.1518 67.4257 95.9956 67.5205 95.8228 67.5986V67.632C96.1239 67.7212 96.3748 67.8829 96.5756 68.1172C96.7819 68.3514 96.8851 68.6581 96.8851 69.0372C96.8851 69.3774 96.7986 69.6701 96.6258 69.9155C96.4585 70.1609 96.2243 70.3505 95.9232 70.4843C95.622 70.6125 95.2763 70.6767 94.886 70.6767ZM99.6804 70.6767C99.3737 70.6767 99.0949 70.6321 98.844 70.5428C98.5986 70.448 98.3895 70.2891 98.2166 70.0661C98.0494 69.843 97.9183 69.5419 97.8235 69.1627C97.7343 68.7779 97.6897 68.2928 97.6897 67.7073C97.6897 67.1218 97.7343 66.6394 97.8235 66.2602C97.9183 65.8755 98.0494 65.5716 98.2166 65.3485C98.3895 65.1255 98.5986 64.9693 98.844 64.8801C99.0949 64.7853 99.3737 64.7379 99.6804 64.7379C99.9927 64.7379 100.272 64.7853 100.517 64.8801C100.762 64.9693 100.969 65.1255 101.136 65.3485C101.309 65.5716 101.44 65.8755 101.529 66.2602C101.624 66.6394 101.671 67.1218 101.671 67.7073C101.671 68.2928 101.624 68.7779 101.529 69.1627C101.44 69.5419 101.309 69.843 101.136 70.0661C100.969 70.2891 100.762 70.448 100.517 70.5428C100.272 70.6321 99.9927 70.6767 99.6804 70.6767ZM99.6804 69.9573C99.976 69.9573 100.199 69.882 100.35 69.7315C100.506 69.5754 100.614 69.3467 100.676 69.0456C100.737 68.7445 100.768 68.3709 100.768 67.9248V67.5149C100.768 67.0577 100.737 66.6785 100.676 66.3773C100.614 66.0707 100.506 65.842 100.35 65.6915C100.199 65.5353 99.976 65.4573 99.6804 65.4573C99.3905 65.4573 99.1674 65.5353 99.0113 65.6915C98.8551 65.842 98.7464 66.0679 98.6851 66.369C98.6237 66.6701 98.593 67.0465 98.593 67.4982V67.908C98.593 68.3541 98.6237 68.7305 98.6851 69.0372C98.7464 69.3439 98.8551 69.5754 99.0113 69.7315C99.1674 69.882 99.3905 69.9573 99.6804 69.9573ZM102.819 70.5763V69.606H103.747V70.5763H102.819ZM106.901 70.6767C106.422 70.6767 106.032 70.6014 105.73 70.4508C105.435 70.3003 105.217 70.0995 105.078 69.8486C104.944 69.5921 104.877 69.3105 104.877 69.0038C104.877 68.6915 104.953 68.4183 105.103 68.1841C105.254 67.9443 105.493 67.7603 105.822 67.632C105.56 67.4926 105.362 67.3086 105.229 67.08C105.095 66.8513 105.028 66.6004 105.028 66.3272C105.028 66.0316 105.098 65.764 105.237 65.5242C105.376 65.2844 105.585 65.0948 105.864 64.9554C106.143 64.8104 106.489 64.7379 106.901 64.7379C107.314 64.7379 107.657 64.8104 107.93 64.9554C108.204 65.0948 108.41 65.2844 108.549 65.5242C108.694 65.764 108.767 66.0316 108.767 66.3272C108.767 66.6004 108.697 66.8513 108.558 67.08C108.424 67.3086 108.226 67.4926 107.964 67.632C108.298 67.7603 108.538 67.9443 108.683 68.1841C108.834 68.4183 108.909 68.6915 108.909 69.0038C108.909 69.3105 108.839 69.5921 108.7 69.8486C108.566 70.0995 108.351 70.3003 108.056 70.4508C107.76 70.6014 107.375 70.6767 106.901 70.6767ZM106.901 69.9657C107.264 69.9657 107.54 69.8793 107.73 69.7064C107.919 69.528 108.014 69.2854 108.014 68.9787C108.014 68.672 107.919 68.4322 107.73 68.2593C107.54 68.0865 107.264 68 106.901 68C106.533 68 106.252 68.0865 106.057 68.2593C105.867 68.4322 105.772 68.672 105.772 68.9787C105.772 69.2854 105.867 69.528 106.057 69.7064C106.252 69.8793 106.533 69.9657 106.901 69.9657ZM106.901 67.2891C107.203 67.2891 107.44 67.211 107.612 67.0549C107.791 66.8932 107.88 66.6645 107.88 66.369C107.88 66.079 107.794 65.8532 107.621 65.6915C107.448 65.5298 107.208 65.4489 106.901 65.4489C106.589 65.4489 106.344 65.5298 106.165 65.6915C105.993 65.8532 105.906 66.079 105.906 66.369C105.906 66.6645 105.993 66.8932 106.165 67.0549C106.344 67.211 106.589 67.2891 106.901 67.2891ZM111.83 70.6767C111.501 70.6767 111.205 70.6293 110.943 70.5345C110.687 70.4397 110.466 70.2863 110.282 70.0744C110.098 69.857 109.959 69.5698 109.864 69.2129C109.769 68.8504 109.722 68.4043 109.722 67.8746C109.722 67.2835 109.767 66.7872 109.856 66.3857C109.951 65.9842 110.087 65.6636 110.266 65.4238C110.444 65.1784 110.662 65.0028 110.918 64.8968C111.175 64.7909 111.467 64.7379 111.796 64.7379C112.209 64.7379 112.544 64.816 112.8 64.9721C113.062 65.1283 113.252 65.3402 113.369 65.6078C113.491 65.8755 113.553 66.1794 113.553 66.5195H112.666C112.666 66.2909 112.633 66.0985 112.566 65.9424C112.504 65.7807 112.404 65.6608 112.265 65.5827C112.131 65.4991 111.961 65.4573 111.754 65.4573C111.448 65.4573 111.211 65.5409 111.043 65.7082C110.882 65.8699 110.77 66.1041 110.709 66.4108C110.653 66.7119 110.622 67.0744 110.617 67.4982C110.673 67.409 110.765 67.317 110.893 67.2222C111.021 67.1274 111.177 67.0493 111.361 66.988C111.551 66.921 111.757 66.8876 111.98 66.8876C112.387 66.8876 112.722 66.9712 112.984 67.1385C113.246 67.3002 113.439 67.5233 113.561 67.8077C113.689 68.0921 113.754 68.4127 113.754 68.7696C113.754 69.1543 113.67 69.4917 113.503 69.7817C113.335 70.0661 113.107 70.2863 112.817 70.4425C112.527 70.5986 112.198 70.6767 111.83 70.6767ZM111.771 69.9573C112.017 69.9573 112.217 69.9044 112.373 69.7984C112.535 69.6869 112.655 69.5419 112.733 69.3635C112.811 69.1794 112.85 68.9787 112.85 68.7612C112.85 68.5437 112.811 68.3486 112.733 68.1757C112.661 67.9973 112.544 67.8579 112.382 67.7575C112.226 67.6515 112.025 67.5986 111.78 67.5986C111.534 67.5986 111.331 67.6515 111.169 67.7575C111.007 67.8579 110.887 67.9973 110.809 68.1757C110.731 68.3541 110.692 68.5577 110.692 68.7863C110.692 68.9982 110.731 69.1962 110.809 69.3802C110.887 69.5586 111.004 69.7008 111.161 69.8068C111.322 69.9071 111.526 69.9573 111.771 69.9573ZM115.679 70.5763L119.853 64.8383H120.589L116.407 70.5763H115.679ZM116.189 67.7575C115.916 67.7575 115.679 67.7129 115.478 67.6236C115.283 67.5289 115.133 67.3727 115.027 67.1552C114.921 66.9378 114.868 66.6366 114.868 66.2519C114.868 65.8615 114.921 65.5576 115.027 65.3402C115.133 65.1227 115.283 64.9693 115.478 64.8801C115.679 64.7853 115.916 64.7379 116.189 64.7379C116.462 64.7379 116.694 64.7853 116.884 64.8801C117.079 64.9693 117.229 65.1227 117.335 65.3402C117.441 65.5576 117.494 65.8615 117.494 66.2519C117.494 66.6366 117.441 66.9406 117.335 67.1636C117.229 67.3811 117.079 67.5344 116.884 67.6236C116.694 67.7129 116.462 67.7575 116.189 67.7575ZM116.189 67.2054C116.429 67.2054 116.588 67.1246 116.666 66.9629C116.744 66.8011 116.783 66.5781 116.783 66.2937V66.2017C116.783 66.0121 116.766 65.8504 116.733 65.7166C116.699 65.5772 116.638 65.4712 116.549 65.3987C116.465 65.3262 116.345 65.29 116.189 65.29C115.949 65.29 115.788 65.3708 115.704 65.5325C115.626 65.6943 115.587 65.9173 115.587 66.2017V66.2937C115.587 66.5781 115.626 66.8011 115.704 66.9629C115.788 67.1246 115.949 67.2054 116.189 67.2054ZM120.07 70.6767C119.803 70.6767 119.568 70.6321 119.368 70.5428C119.173 70.448 119.022 70.2919 118.916 70.0744C118.81 69.857 118.757 69.5558 118.757 69.1711C118.757 68.7807 118.81 68.4768 118.916 68.2593C119.022 68.0419 119.173 67.8885 119.368 67.7993C119.568 67.7045 119.803 67.6571 120.07 67.6571C120.344 67.6571 120.578 67.7045 120.773 67.7993C120.968 67.8885 121.116 68.0419 121.216 68.2593C121.322 68.4768 121.375 68.7807 121.375 69.1711C121.375 69.5558 121.322 69.8597 121.216 70.0828C121.116 70.3003 120.968 70.4536 120.773 70.5428C120.578 70.6321 120.344 70.6767 120.07 70.6767ZM120.07 70.1246C120.31 70.1246 120.469 70.0438 120.547 69.882C120.625 69.7203 120.664 69.4973 120.664 69.2129V69.1209C120.664 68.9313 120.647 68.7696 120.614 68.6357C120.586 68.4963 120.528 68.3904 120.438 68.3179C120.355 68.2454 120.232 68.2092 120.07 68.2092C119.836 68.2092 119.677 68.29 119.594 68.4517C119.516 68.6134 119.476 68.8365 119.476 69.1209V69.2129C119.476 69.4973 119.516 69.7203 119.594 69.882C119.677 70.0438 119.836 70.1246 120.07 70.1246ZM123.082 64.4284C123.556 64.947 123.915 65.5298 124.161 66.1766C124.412 66.8179 124.537 67.4842 124.537 68.1757C124.537 68.856 124.412 69.5196 124.161 70.1664C123.915 70.8077 123.556 71.3849 123.082 71.8979H122.521C122.744 71.5577 122.945 71.1841 123.123 70.777C123.302 70.37 123.441 69.9462 123.542 69.5056C123.648 69.0595 123.701 68.6162 123.701 68.1757C123.701 67.7296 123.648 67.2835 123.542 66.8374C123.441 66.3913 123.302 65.9647 123.123 65.5576C122.945 65.145 122.744 64.7686 122.521 64.4284H123.082Z" fill="#1D1D21"/>
</g>
<defs>
<filter id="filter0_d_3_29" x="124" y="129" width="153.5" height="50" filterUnits="userSpaceOnUse" color-interpolation-filters="sRGB">
<feFlood flood-opacity="0" result="BackgroundImageFix"/>
<feColorMatrix in="SourceAlpha" type="matrix" values="0 0 0 0 0 0 0 0 0 0 0 0 0 0 0 0 0 0 127 0" result="hardAlpha"/>
<feOffset dy="6"/>
<feGaussianBlur stdDeviation="6"/>
<feComposite in2="hardAlpha" operator="out"/>
<feColorMatrix type="matrix" values="0 0 0 0 0.117647 0 0 0 0 0.117647 0 0 0 0 0.117647 0 0 0 0.08 0"/>
<feBlend mode="normal" in2="BackgroundImageFix" result="effect1_dropShadow_3_29"/>
<feBlend mode="normal" in="SourceGraphic" in2="effect1_dropShadow_3_29" result="shape"/>
</filter>
<filter id="filter1_d_3_29" x="0.847426" y="50.4237" width="146.945" height="46.4577" filterUnits="userSpaceOnUse" color-interpolation-filters="sRGB">
<feFlood flood-opacity="0" result="BackgroundImageFix"/>
<feColorMatrix in="SourceAlpha" type="matrix" values="0 0 0 0 0 0 0 0 0 0 0 0 0 0 0 0 0 0 127 0" result="hardAlpha"/>
<feOffset dy="5.57629"/>
<feGaussianBlur stdDeviation="5.57629"/>
<feComposite in2="hardAlpha" operator="out"/>
<feColorMatrix type="matrix" values="0 0 0 0 0.117647 0 0 0 0 0.117647 0 0 0 0 0.117647 0 0 0 0.08 0"/>
<feBlend mode="normal" in2="BackgroundImageFix" result="effect1_dropShadow_3_29"/>
<feBlend mode="normal" in="SourceGraphic" in2="effect1_dropShadow_3_29" result="shape"/>
</filter>
</defs>
</svg>
