<svg width="18" height="20" viewBox="0 0 18 20" fill="none" xmlns="http://www.w3.org/2000/svg">
<path d="M6.06665 18.2607C7.36665 19.4202 9.96665 19.4202 11.2666 18.2607" stroke="#4425F5" stroke-width="1.33333" stroke-linecap="round" stroke-linejoin="round"/>
<path fill-rule="evenodd" clip-rule="evenodd" d="M9.53213 0.915075C9.53291 0.900003 9.5333 0.88483 9.5333 0.869565C9.5333 0.389318 9.14528 0 8.66663 0C8.18799 0 7.79997 0.389318 7.79997 0.869565C7.79997 0.884844 7.80036 0.90003 7.80114 0.915115C4.89985 1.3347 2.16986 4.60848 2.60004 8.2611C2.82284 9.37882 2.12132 9.971 1.39115 10.5874C0.70118 11.1698 -0.014371 11.7738 0.000219429 12.8632C0.000219429 14.3902 0.866676 15.2176 2.13919 15.628C2.13919 15.628 4.46973 16.522 8.66677 16.522C12.8638 16.522 15.1944 15.628 15.1944 15.628C16.4668 15.2176 17.3335 14.3481 17.3333 12.8632C17.3332 11.7644 16.6181 11.1602 15.9319 10.5804C15.205 9.96619 14.5106 9.37945 14.7335 8.2611C15.1637 4.60836 12.4335 1.33449 9.53213 0.915075ZM3.50036 10.293C3.88998 9.67484 4.07745 8.9301 3.91924 8.06121C3.75161 6.52536 4.28492 5.05071 5.19704 3.94779C6.13177 2.81753 7.35271 2.20312 8.42324 2.20312H8.91031C9.98083 2.20312 11.2018 2.81753 12.1365 3.94779C13.0486 5.0507 13.5819 6.52533 13.4143 8.06116C13.2567 8.92593 13.4395 9.66847 13.827 10.287C14.1723 10.8381 14.6644 11.2545 14.9949 11.5342L15.0094 11.5465C15.8021 12.2173 15.9999 12.4421 16 12.8634C16.0001 13.3285 15.8716 13.6078 15.7136 13.7988C15.5416 14.0068 15.2505 14.2089 14.7851 14.359L14.7506 14.3701L14.7218 14.3812L14.721 14.3815L14.721 14.3815L14.7135 14.3843C14.7034 14.3879 14.6846 14.3946 14.657 14.404C14.6017 14.4228 14.5115 14.4522 14.3873 14.4888C14.1389 14.5621 13.7542 14.6643 13.2406 14.768C12.2136 14.9753 10.6702 15.1886 8.66677 15.1886C6.66331 15.1886 5.11989 14.9753 4.0929 14.768C3.57929 14.6643 3.19469 14.5621 2.94622 14.4888C2.82199 14.4522 2.73182 14.4228 2.67659 14.404C2.64898 14.3946 2.63011 14.3879 2.62009 14.3843L2.6126 14.3815L2.61255 14.3815L2.61172 14.3812L2.5829 14.3701L2.54842 14.359C2.06799 14.2041 1.7811 14.0071 1.61514 13.8087C1.46602 13.6305 1.33355 13.3567 1.33355 12.8632V12.8543L1.33343 12.8454C1.32813 12.4491 1.50943 12.2334 2.31223 11.5547L2.32701 11.5422L2.32702 11.5422C2.65931 11.2613 3.15308 10.8439 3.50036 10.293Z" fill="#4425F5"/>
</svg>
