<svg width="26" height="31" viewBox="0 0 26 31" fill="none" xmlns="http://www.w3.org/2000/svg">
<path d="M9.1001 27.8906C11.0501 29.6298 14.9501 29.6298 16.9001 27.8906" stroke="#212135" stroke-width="2" stroke-linecap="round" stroke-linejoin="round"/>
<path fill-rule="evenodd" clip-rule="evenodd" d="M14.2983 1.87262C14.2994 1.85001 14.3 1.82725 14.3 1.80435C14.3 1.08398 13.718 0.5 13 0.5C12.282 0.5 11.7 1.08398 11.7 1.80435C11.7 1.82726 11.7006 1.85004 11.7018 1.87266C7.3498 2.502 3.25479 7.41269 3.90006 12.8916C4.23427 14.5682 3.18198 15.4565 2.08672 16.381C1.05177 17.2547 -0.0215564 18.1607 0.000329144 19.7948C0.000329144 22.0852 1.30001 23.3264 3.20879 23.942C3.20879 23.942 6.7046 25.2829 13.0002 25.2829C19.2957 25.2829 22.7915 23.942 22.7915 23.942C24.7003 23.3264 26.0003 22.0221 26 19.7948C25.9998 18.1466 24.9271 17.2402 23.8979 16.3706C22.8075 15.4493 21.7659 14.5692 22.1003 12.8916C22.7455 7.41257 18.6503 2.50178 14.2983 1.87262ZM5.25054 15.9394C5.83497 15.0123 6.11617 13.8952 5.87886 12.5918C5.62742 10.288 6.42737 8.07607 7.79556 6.42168C9.19766 4.72629 11.0291 3.80469 12.6349 3.80469H13.3655C14.9712 3.80469 16.8027 4.72629 18.2048 6.42168C19.5729 8.07605 20.3729 10.288 20.1215 12.5917C19.8851 13.8889 20.1592 15.0027 20.7405 15.9305C21.2585 16.7572 21.9966 17.3818 22.4924 17.8013L22.5141 17.8197C23.7031 18.826 23.9999 19.1631 24 19.7951C24.0001 20.4928 23.8073 20.9117 23.5704 21.1982C23.3123 21.5102 22.8757 21.8134 22.1777 22.0385L22.126 22.0552L22.0827 22.0718L22.0815 22.0722L22.0815 22.0723L22.0702 22.0764C22.0552 22.0818 22.0268 22.0919 21.9854 22.106C21.9026 22.1341 21.7673 22.1783 21.581 22.2332C21.2083 22.3432 20.6314 22.4965 19.861 22.652C18.3205 22.9629 16.0054 23.2829 13.0002 23.2829C9.99496 23.2829 7.67984 22.9629 6.13935 22.652C5.36894 22.4965 4.79204 22.3432 4.41934 22.2332C4.23299 22.1783 4.09773 22.1341 4.01489 22.106C3.97347 22.0919 3.94516 22.0818 3.93014 22.0764L3.91882 22.0723L3.91759 22.0718L3.87435 22.0552L3.82262 22.0385C3.10199 21.8061 2.67165 21.5107 2.4227 21.2131C2.19903 20.9458 2.00033 20.535 2.00033 19.7948V19.7815L2.00015 19.7681C1.99219 19.1737 2.26414 18.8501 3.46834 17.832L3.49052 17.8133C3.98895 17.3919 4.72962 16.7658 5.25054 15.9394Z" fill="#212135"/>
</svg>
