<svg width="84" height="23" viewBox="0 0 84 23" fill="none" xmlns="http://www.w3.org/2000/svg">
<path d="M14.968 22H0.296V1.308H4.468V18.024H14.968V22ZM26.2776 22.336C23.1976 22.336 20.6403 21.3187 18.6056 19.284C16.5523 17.2307 15.5256 14.7107 15.5256 11.724C15.5256 8.71867 16.5616 6.17067 18.6336 4.08C20.7243 1.98933 23.2816 0.943999 26.3056 0.943999C29.3296 0.943999 31.8776 1.98933 33.9496 4.08C36.0403 6.17067 37.0856 8.7 37.0856 11.668C37.0856 14.636 36.0403 17.156 33.9496 19.228C31.8776 21.3 29.3203 22.336 26.2776 22.336ZM32.7736 11.668C32.7736 9.764 32.1483 8.18667 30.8976 6.936C29.6283 5.66667 28.0976 5.032 26.3056 5.032C24.5136 5.032 22.9829 5.66667 21.7136 6.936C20.4629 8.18667 19.8376 9.764 19.8376 11.668C19.8376 13.5533 20.4536 15.1213 21.6856 16.372C22.9363 17.6227 24.4763 18.248 26.3056 18.248C28.1349 18.248 29.6749 17.6227 30.9256 16.372C32.1763 15.1213 32.7923 13.5533 32.7736 11.668ZM50.068 22.308C46.9506 22.308 44.3653 21.3093 42.312 19.312C40.296 17.296 39.288 14.748 39.288 11.668C39.288 8.55067 40.3333 5.984 42.424 3.968C44.5146 1.952 47.1186 0.943999 50.236 0.943999C51.8786 0.943999 53.4373 1.252 54.912 1.868C56.4053 2.46533 57.628 3.27733 58.58 4.304L55.864 7.272C54.3146 5.72267 52.4386 4.948 50.236 4.948C48.3133 4.948 46.7173 5.58267 45.448 6.852C44.1786 8.12133 43.544 9.71733 43.544 11.64C43.544 13.5253 44.16 15.112 45.392 16.4C46.6613 17.688 48.2573 18.332 50.18 18.332C51.2253 18.332 52.2426 18.136 53.232 17.744C54.2213 17.3333 55.052 16.792 55.724 16.12V13.292H50.012V9.68H59.504V18.192C56.872 20.936 53.7266 22.308 50.068 22.308ZM72.6799 22.336C69.5999 22.336 67.0426 21.3187 65.0079 19.284C62.9546 17.2307 61.9279 14.7107 61.9279 11.724C61.9279 8.71867 62.9639 6.17067 65.0359 4.08C67.1266 1.98933 69.6839 0.943999 72.7079 0.943999C75.7319 0.943999 78.2799 1.98933 80.3519 4.08C82.4426 6.17067 83.4879 8.7 83.4879 11.668C83.4879 14.636 82.4426 17.156 80.3519 19.228C78.2799 21.3 75.7226 22.336 72.6799 22.336ZM79.1759 11.668C79.1759 9.764 78.5506 8.18667 77.2999 6.936C76.0306 5.66667 74.4999 5.032 72.7079 5.032C70.9159 5.032 69.3853 5.66667 68.1159 6.936C66.8653 8.18667 66.2399 9.764 66.2399 11.668C66.2399 13.5533 66.8559 15.1213 68.0879 16.372C69.3386 17.6227 70.8786 18.248 72.7079 18.248C74.5373 18.248 76.0773 17.6227 77.3279 16.372C78.5786 15.1213 79.1946 13.5533 79.1759 11.668Z" fill="black"/>
</svg>
