<svg width="25" height="26" viewBox="0 0 25 26" fill="none" xmlns="http://www.w3.org/2000/svg">
<path d="M1 13C1 14.0723 1.07186 15.0623 1.21261 15.9721C1.66609 18.9035 2.82928 20.9898 4.62538 22.3615C6.4391 23.7467 9.02479 24.5 12.5 24.5C15.9752 24.5 18.5609 23.7467 20.3746 22.3615C22.1707 20.9898 23.3339 18.9035 23.7874 15.9721C23.9281 15.0623 24 14.0723 24 13C24 11.9277 23.9281 10.9377 23.7874 10.0279C23.3339 7.09653 22.1707 5.01019 20.3746 3.63849C18.5609 2.25334 15.9752 1.5 12.5 1.5C9.02479 1.5 6.4391 2.25334 4.62538 3.63849C2.82928 5.01019 1.66609 7.09653 1.21261 10.0279C1.07186 10.9377 1 11.9277 1 13Z" stroke="#090909" stroke-width="2" stroke-linecap="round" stroke-linejoin="round"/>
<path d="M15.6668 13C15.6668 16.079 15.2114 19.0978 14.4949 21.3157C14.1348 22.4303 13.7263 23.2873 13.3166 23.8441C12.8874 24.4275 12.5993 24.5 12.5002 24.5C12.4011 24.5 12.113 24.4275 11.6838 23.8441C11.274 23.2873 10.8655 22.4303 10.5055 21.3157C9.78894 19.0978 9.3335 16.079 9.3335 13C9.3335 9.92104 9.78894 6.90221 10.5055 4.68432C10.8655 3.56974 11.274 2.71273 11.6838 2.15587C12.113 1.57255 12.4011 1.5 12.5002 1.5C12.5993 1.5 12.8874 1.57255 13.3166 2.15587C13.7263 2.71273 14.1348 3.56974 14.4949 4.68432C15.2114 6.90221 15.6668 9.92104 15.6668 13Z" stroke="#090909" stroke-width="2"/>
</svg>
